%TF.GenerationSoftware,KiCad,Pcbnew,6.0.1*%
%TF.CreationDate,2022-02-27T14:03:47-05:00*%
%TF.ProjectId,jetta-dash,6a657474-612d-4646-9173-682e6b696361,rev?*%
%TF.SameCoordinates,Original*%
%TF.FileFunction,Soldermask,Bot*%
%TF.FilePolarity,Negative*%
%FSLAX46Y46*%
G04 Gerber Fmt 4.6, Leading zero omitted, Abs format (unit mm)*
G04 Created by KiCad (PCBNEW 6.0.1) date 2022-02-27 14:03:47*
%MOMM*%
%LPD*%
G01*
G04 APERTURE LIST*
G04 Aperture macros list*
%AMRoundRect*
0 Rectangle with rounded corners*
0 $1 Rounding radius*
0 $2 $3 $4 $5 $6 $7 $8 $9 X,Y pos of 4 corners*
0 Add a 4 corners polygon primitive as box body*
4,1,4,$2,$3,$4,$5,$6,$7,$8,$9,$2,$3,0*
0 Add four circle primitives for the rounded corners*
1,1,$1+$1,$2,$3*
1,1,$1+$1,$4,$5*
1,1,$1+$1,$6,$7*
1,1,$1+$1,$8,$9*
0 Add four rect primitives between the rounded corners*
20,1,$1+$1,$2,$3,$4,$5,0*
20,1,$1+$1,$4,$5,$6,$7,0*
20,1,$1+$1,$6,$7,$8,$9,0*
20,1,$1+$1,$8,$9,$2,$3,0*%
G04 Aperture macros list end*
%ADD10C,5.000000*%
%ADD11RoundRect,0.250000X-0.262500X-0.450000X0.262500X-0.450000X0.262500X0.450000X-0.262500X0.450000X0*%
%ADD12RoundRect,0.243750X-0.243750X-0.456250X0.243750X-0.456250X0.243750X0.456250X-0.243750X0.456250X0*%
%ADD13RoundRect,0.135000X-0.135000X-0.185000X0.135000X-0.185000X0.135000X0.185000X-0.135000X0.185000X0*%
%ADD14RoundRect,0.150000X0.875000X0.150000X-0.875000X0.150000X-0.875000X-0.150000X0.875000X-0.150000X0*%
%ADD15R,1.700000X1.700000*%
%ADD16O,1.700000X1.700000*%
%ADD17C,1.600000*%
%ADD18O,1.600000X1.600000*%
%ADD19RoundRect,0.250000X-1.412500X-0.550000X1.412500X-0.550000X1.412500X0.550000X-1.412500X0.550000X0*%
G04 APERTURE END LIST*
D10*
%TO.C,mount2*%
X147193000Y-129921000D03*
%TD*%
%TO.C,mount1*%
X147320000Y-89916000D03*
%TD*%
D11*
%TO.C,R30*%
X158472500Y-100330000D03*
X160297500Y-100330000D03*
%TD*%
D12*
%TO.C,D30*%
X158447500Y-102870000D03*
X160322500Y-102870000D03*
%TD*%
D13*
%TO.C,R4*%
X163193000Y-102743000D03*
X164213000Y-102743000D03*
%TD*%
%TO.C,R2*%
X163193000Y-100203000D03*
X164213000Y-100203000D03*
%TD*%
%TO.C,R3*%
X163193000Y-101473000D03*
X164213000Y-101473000D03*
%TD*%
%TO.C,R1*%
X163193000Y-98933000D03*
X164213000Y-98933000D03*
%TD*%
%TO.C,R5*%
X163193000Y-104013000D03*
X164213000Y-104013000D03*
%TD*%
D14*
%TO.C,U1*%
X170385000Y-106045000D03*
X170385000Y-107315000D03*
X170385000Y-108585000D03*
X170385000Y-109855000D03*
X170385000Y-111125000D03*
X170385000Y-112395000D03*
X170385000Y-113665000D03*
X170385000Y-114935000D03*
X170385000Y-116205000D03*
X170385000Y-117475000D03*
X161085000Y-117475000D03*
X161085000Y-116205000D03*
X161085000Y-114935000D03*
X161085000Y-113665000D03*
X161085000Y-112395000D03*
X161085000Y-111125000D03*
X161085000Y-109855000D03*
X161085000Y-108585000D03*
X161085000Y-107315000D03*
X161085000Y-106045000D03*
%TD*%
D15*
%TO.C,J1*%
X151130000Y-105547000D03*
D16*
X151130000Y-108087000D03*
X151130000Y-110627000D03*
X151130000Y-113167000D03*
%TD*%
D17*
%TO.C,R31*%
X140462000Y-109474000D03*
D18*
X148082000Y-109474000D03*
%TD*%
D17*
%TO.C,R32*%
X140462000Y-113284000D03*
D18*
X148082000Y-113284000D03*
%TD*%
D11*
%TO.C,R23*%
X158091500Y-123317000D03*
X159916500Y-123317000D03*
%TD*%
%TO.C,R24*%
X158091500Y-125476000D03*
X159916500Y-125476000D03*
%TD*%
D19*
%TO.C,C10*%
X141988500Y-104267000D03*
X147063500Y-104267000D03*
%TD*%
M02*
