%TF.GenerationSoftware,KiCad,Pcbnew,6.0.1*%
%TF.CreationDate,2022-02-27T14:03:46-05:00*%
%TF.ProjectId,jetta-dash,6a657474-612d-4646-9173-682e6b696361,rev?*%
%TF.SameCoordinates,Original*%
%TF.FileFunction,Copper,L2,Bot*%
%TF.FilePolarity,Positive*%
%FSLAX46Y46*%
G04 Gerber Fmt 4.6, Leading zero omitted, Abs format (unit mm)*
G04 Created by KiCad (PCBNEW 6.0.1) date 2022-02-27 14:03:46*
%MOMM*%
%LPD*%
G01*
G04 APERTURE LIST*
G04 Aperture macros list*
%AMRoundRect*
0 Rectangle with rounded corners*
0 $1 Rounding radius*
0 $2 $3 $4 $5 $6 $7 $8 $9 X,Y pos of 4 corners*
0 Add a 4 corners polygon primitive as box body*
4,1,4,$2,$3,$4,$5,$6,$7,$8,$9,$2,$3,0*
0 Add four circle primitives for the rounded corners*
1,1,$1+$1,$2,$3*
1,1,$1+$1,$4,$5*
1,1,$1+$1,$6,$7*
1,1,$1+$1,$8,$9*
0 Add four rect primitives between the rounded corners*
20,1,$1+$1,$2,$3,$4,$5,0*
20,1,$1+$1,$4,$5,$6,$7,0*
20,1,$1+$1,$6,$7,$8,$9,0*
20,1,$1+$1,$8,$9,$2,$3,0*%
G04 Aperture macros list end*
%TA.AperFunction,ComponentPad*%
%ADD10C,5.000000*%
%TD*%
%TA.AperFunction,SMDPad,CuDef*%
%ADD11RoundRect,0.250000X-0.262500X-0.450000X0.262500X-0.450000X0.262500X0.450000X-0.262500X0.450000X0*%
%TD*%
%TA.AperFunction,SMDPad,CuDef*%
%ADD12RoundRect,0.243750X-0.243750X-0.456250X0.243750X-0.456250X0.243750X0.456250X-0.243750X0.456250X0*%
%TD*%
%TA.AperFunction,SMDPad,CuDef*%
%ADD13RoundRect,0.135000X-0.135000X-0.185000X0.135000X-0.185000X0.135000X0.185000X-0.135000X0.185000X0*%
%TD*%
%TA.AperFunction,SMDPad,CuDef*%
%ADD14RoundRect,0.150000X0.875000X0.150000X-0.875000X0.150000X-0.875000X-0.150000X0.875000X-0.150000X0*%
%TD*%
%TA.AperFunction,ComponentPad*%
%ADD15R,1.700000X1.700000*%
%TD*%
%TA.AperFunction,ComponentPad*%
%ADD16O,1.700000X1.700000*%
%TD*%
%TA.AperFunction,ComponentPad*%
%ADD17C,1.600000*%
%TD*%
%TA.AperFunction,ComponentPad*%
%ADD18O,1.600000X1.600000*%
%TD*%
%TA.AperFunction,SMDPad,CuDef*%
%ADD19RoundRect,0.250000X-1.412500X-0.550000X1.412500X-0.550000X1.412500X0.550000X-1.412500X0.550000X0*%
%TD*%
%TA.AperFunction,ViaPad*%
%ADD20C,0.800000*%
%TD*%
%TA.AperFunction,Conductor*%
%ADD21C,0.500000*%
%TD*%
G04 APERTURE END LIST*
D10*
%TO.P,mount2,1*%
%TO.N,GND*%
X147193000Y-129921000D03*
%TD*%
%TO.P,mount1,1*%
%TO.N,N/C*%
X147320000Y-89916000D03*
%TD*%
D11*
%TO.P,R30,1*%
%TO.N,Net-(D30-Pad1)*%
X158472500Y-100330000D03*
%TO.P,R30,2*%
%TO.N,GND*%
X160297500Y-100330000D03*
%TD*%
D12*
%TO.P,D30,1,K*%
%TO.N,Net-(D30-Pad1)*%
X158447500Y-102870000D03*
%TO.P,D30,2,A*%
%TO.N,VCC_net*%
X160322500Y-102870000D03*
%TD*%
D13*
%TO.P,R4,1*%
%TO.N,VCC_net*%
X163193000Y-102743000D03*
%TO.P,R4,2*%
%TO.N,/addr3*%
X164213000Y-102743000D03*
%TD*%
%TO.P,R2,1*%
%TO.N,VCC_net*%
X163193000Y-100203000D03*
%TO.P,R2,2*%
%TO.N,/addr1*%
X164213000Y-100203000D03*
%TD*%
%TO.P,R3,1*%
%TO.N,VCC_net*%
X163193000Y-101473000D03*
%TO.P,R3,2*%
%TO.N,/addr2*%
X164213000Y-101473000D03*
%TD*%
%TO.P,R1,1*%
%TO.N,VCC_net*%
X163193000Y-98933000D03*
%TO.P,R1,2*%
%TO.N,/addr0*%
X164213000Y-98933000D03*
%TD*%
%TO.P,R5,1*%
%TO.N,VCC_net*%
X163193000Y-104013000D03*
%TO.P,R5,2*%
%TO.N,/addr4*%
X164213000Y-104013000D03*
%TD*%
D14*
%TO.P,U1,1,A0*%
%TO.N,/addr0*%
X170385000Y-106045000D03*
%TO.P,U1,2,A1*%
%TO.N,/addr1*%
X170385000Y-107315000D03*
%TO.P,U1,3,A2*%
%TO.N,/addr2*%
X170385000Y-108585000D03*
%TO.P,U1,4,A3*%
%TO.N,/addr3*%
X170385000Y-109855000D03*
%TO.P,U1,5,A4*%
%TO.N,/addr4*%
X170385000Y-111125000D03*
%TO.P,U1,6,LED0*%
%TO.N,Net-(R21-Pad2)*%
X170385000Y-112395000D03*
%TO.P,U1,7,LED1*%
%TO.N,Net-(R22-Pad2)*%
X170385000Y-113665000D03*
%TO.P,U1,8,LED2*%
%TO.N,Net-(R23-Pad2)*%
X170385000Y-114935000D03*
%TO.P,U1,9,LED3*%
%TO.N,Net-(R24-Pad2)*%
X170385000Y-116205000D03*
%TO.P,U1,10,VSS*%
%TO.N,GND*%
X170385000Y-117475000D03*
%TO.P,U1,11,LED4*%
%TO.N,Net-(R25-Pad2)*%
X161085000Y-117475000D03*
%TO.P,U1,12,LED5*%
%TO.N,Net-(R26-Pad2)*%
X161085000Y-116205000D03*
%TO.P,U1,13,LED6*%
%TO.N,Net-(R27-Pad2)*%
X161085000Y-114935000D03*
%TO.P,U1,14,LED7*%
%TO.N,Net-(R28-Pad2)*%
X161085000Y-113665000D03*
%TO.P,U1,15,~{OE}*%
%TO.N,GND*%
X161085000Y-112395000D03*
%TO.P,U1,16,A5*%
X161085000Y-111125000D03*
%TO.P,U1,17,A6*%
X161085000Y-109855000D03*
%TO.P,U1,18,SCL*%
%TO.N,/SCL*%
X161085000Y-108585000D03*
%TO.P,U1,19,SDA*%
%TO.N,/SDA*%
X161085000Y-107315000D03*
%TO.P,U1,20,VDD*%
%TO.N,VCC_net*%
X161085000Y-106045000D03*
%TD*%
D15*
%TO.P,J1,1,Pin_1*%
%TO.N,GND*%
X151130000Y-105547000D03*
D16*
%TO.P,J1,2,Pin_2*%
%TO.N,/SDA*%
X151130000Y-108087000D03*
%TO.P,J1,3,Pin_3*%
%TO.N,/SCL*%
X151130000Y-110627000D03*
%TO.P,J1,4,Pin_4*%
%TO.N,VCC_net*%
X151130000Y-113167000D03*
%TD*%
D17*
%TO.P,R31,1*%
%TO.N,VCC_net*%
X140462000Y-109474000D03*
D18*
%TO.P,R31,2*%
%TO.N,/SDA*%
X148082000Y-109474000D03*
%TD*%
D17*
%TO.P,R32,1*%
%TO.N,VCC_net*%
X140462000Y-113284000D03*
D18*
%TO.P,R32,2*%
%TO.N,/SCL*%
X148082000Y-113284000D03*
%TD*%
D11*
%TO.P,R23,1*%
%TO.N,Net-(D3-Pad1)*%
X158091500Y-123317000D03*
%TO.P,R23,2*%
%TO.N,Net-(R23-Pad2)*%
X159916500Y-123317000D03*
%TD*%
%TO.P,R24,1*%
%TO.N,Net-(D4-Pad1)*%
X158091500Y-125476000D03*
%TO.P,R24,2*%
%TO.N,Net-(R24-Pad2)*%
X159916500Y-125476000D03*
%TD*%
D19*
%TO.P,C10,1*%
%TO.N,VCC_net*%
X141988500Y-104267000D03*
%TO.P,C10,2*%
%TO.N,GND*%
X147063500Y-104267000D03*
%TD*%
D20*
%TO.N,GND*%
X160274000Y-98679000D03*
X170434000Y-118872000D03*
X163703000Y-111125000D03*
%TO.N,VCC_net*%
X151765000Y-132207000D03*
X139700000Y-129540000D03*
X131826000Y-119380000D03*
X127762000Y-109220000D03*
X130810000Y-99060000D03*
X139700000Y-89027000D03*
X152019000Y-86868000D03*
X164465000Y-92075000D03*
%TO.N,/addr0*%
X165135489Y-98970489D03*
%TO.N,/addr1*%
X165135489Y-100240489D03*
%TO.N,/addr2*%
X165135489Y-101510489D03*
%TO.N,/addr3*%
X165135489Y-102780489D03*
%TO.N,/addr4*%
X165135489Y-104050489D03*
%TO.N,/SDA*%
X158750000Y-107315000D03*
%TO.N,/SCL*%
X158750000Y-108585000D03*
%TO.N,Net-(R21-Pad2)*%
X154051000Y-120269000D03*
%TO.N,Net-(R22-Pad2)*%
X150368000Y-120396000D03*
%TO.N,Net-(R25-Pad2)*%
X138049000Y-101600000D03*
%TO.N,Net-(R26-Pad2)*%
X142240000Y-96139000D03*
%TO.N,Net-(R27-Pad2)*%
X152400000Y-96393000D03*
%TO.N,Net-(R28-Pad2)*%
X157226000Y-95504000D03*
%TO.N,Net-(D3-Pad1)*%
X144907000Y-119380000D03*
%TO.N,Net-(D4-Pad1)*%
X132715000Y-109220000D03*
%TD*%
D21*
%TO.N,Net-(R25-Pad2)*%
X161085000Y-117475000D02*
X159692460Y-117475000D01*
X159692460Y-117475000D02*
X153543000Y-111325540D01*
X153543000Y-111325540D02*
X153543000Y-103632000D01*
X153543000Y-103632000D02*
X149860000Y-99949000D01*
X149860000Y-99949000D02*
X139700000Y-99949000D01*
X139700000Y-99949000D02*
X138049000Y-101600000D01*
%TO.N,GND*%
X147063500Y-104267000D02*
X149850000Y-104267000D01*
X149850000Y-104267000D02*
X151130000Y-105547000D01*
%TO.N,Net-(D30-Pad1)*%
X158472500Y-100330000D02*
X158472500Y-102845000D01*
X158472500Y-102845000D02*
X158447500Y-102870000D01*
%TO.N,GND*%
X160274000Y-98679000D02*
X160274000Y-100306500D01*
X160274000Y-100306500D02*
X160297500Y-100330000D01*
X170385000Y-117475000D02*
X170385000Y-118823000D01*
X170385000Y-118823000D02*
X170434000Y-118872000D01*
X161085000Y-111125000D02*
X163703000Y-111125000D01*
X161085000Y-109855000D02*
X161085000Y-112395000D01*
%TO.N,Net-(R23-Pad2)*%
X159916500Y-123317000D02*
X160909000Y-123317000D01*
X168910000Y-114935000D02*
X170385000Y-114935000D01*
X160909000Y-123317000D02*
X168339519Y-115886481D01*
X168339519Y-115886481D02*
X168339519Y-115505481D01*
X168339519Y-115505481D02*
X168910000Y-114935000D01*
%TO.N,Net-(R24-Pad2)*%
X159916500Y-125476000D02*
X160655000Y-125476000D01*
X160655000Y-125476000D02*
X165481000Y-120650000D01*
X169164000Y-116205000D02*
X170385000Y-116205000D01*
X165481000Y-120650000D02*
X165481000Y-119888000D01*
X165481000Y-119888000D02*
X169164000Y-116205000D01*
%TO.N,Net-(R22-Pad2)*%
X170385000Y-113665000D02*
X168148000Y-113665000D01*
X168148000Y-113665000D02*
X167640000Y-114173000D01*
X167640000Y-114173000D02*
X167640000Y-115596730D01*
X161316730Y-121920000D02*
X151892000Y-121920000D01*
X167640000Y-115596730D02*
X161316730Y-121920000D01*
X151892000Y-121920000D02*
X150368000Y-120396000D01*
%TO.N,Net-(R21-Pad2)*%
X170385000Y-112395000D02*
X168402000Y-112395000D01*
X154940000Y-121158000D02*
X154051000Y-120269000D01*
X168402000Y-112395000D02*
X166878000Y-113919000D01*
X166878000Y-113919000D02*
X166878000Y-115369460D01*
X166878000Y-115369460D02*
X161089460Y-121158000D01*
X161089460Y-121158000D02*
X154940000Y-121158000D01*
%TO.N,/addr0*%
X164213000Y-98933000D02*
X165098000Y-98933000D01*
X165098000Y-98933000D02*
X165135489Y-98970489D01*
%TO.N,/addr1*%
X164213000Y-100203000D02*
X165098000Y-100203000D01*
X165098000Y-100203000D02*
X165135489Y-100240489D01*
%TO.N,/addr2*%
X164213000Y-101473000D02*
X165098000Y-101473000D01*
X165098000Y-101473000D02*
X165135489Y-101510489D01*
%TO.N,/addr3*%
X164213000Y-102743000D02*
X165098000Y-102743000D01*
X165098000Y-102743000D02*
X165135489Y-102780489D01*
%TO.N,/addr4*%
X164213000Y-104013000D02*
X165098000Y-104013000D01*
X165098000Y-104013000D02*
X165135489Y-104050489D01*
%TO.N,/addr0*%
X169455489Y-98970489D02*
X165135489Y-98970489D01*
X170385000Y-99900000D02*
X169455489Y-98970489D01*
X170385000Y-106045000D02*
X170385000Y-99900000D01*
%TO.N,/addr1*%
X168910000Y-107315000D02*
X170385000Y-107315000D01*
X168910000Y-101668609D02*
X168910000Y-107315000D01*
X167481880Y-100240489D02*
X168910000Y-101668609D01*
X165135489Y-100240489D02*
X167481880Y-100240489D01*
%TO.N,/addr2*%
X169190730Y-108585000D02*
X168210480Y-107604750D01*
X166280489Y-101510489D02*
X165135489Y-101510489D01*
X168210480Y-103440480D02*
X166280489Y-101510489D01*
X170385000Y-108585000D02*
X169190730Y-108585000D01*
X168210480Y-107604750D02*
X168210480Y-103440480D01*
%TO.N,/addr3*%
X167510960Y-105155960D02*
X165135489Y-102780489D01*
X170385000Y-109855000D02*
X168910000Y-109855000D01*
X168910000Y-109855000D02*
X167510961Y-108455961D01*
X167510961Y-108455961D02*
X167510960Y-105155960D01*
%TO.N,/addr4*%
X166811440Y-105726440D02*
X165135489Y-104050489D01*
X169013595Y-111125000D02*
X166811440Y-108922845D01*
X166811440Y-108922845D02*
X166811440Y-105726440D01*
X170385000Y-111125000D02*
X169013595Y-111125000D01*
%TO.N,/SDA*%
X161085000Y-107315000D02*
X158750000Y-107315000D01*
%TO.N,/SCL*%
X161085000Y-108585000D02*
X158750000Y-108585000D01*
%TO.N,Net-(R26-Pad2)*%
X147320000Y-96139000D02*
X142240000Y-96139000D01*
X161085000Y-116205000D02*
X159411730Y-116205000D01*
X154242520Y-103061520D02*
X147320000Y-96139000D01*
X159411730Y-116205000D02*
X154242520Y-111035790D01*
X154242520Y-111035790D02*
X154242520Y-103061520D01*
%TO.N,Net-(R27-Pad2)*%
X159131000Y-114935000D02*
X154942040Y-110746040D01*
X154942040Y-110746040D02*
X154942040Y-98935040D01*
X161085000Y-114935000D02*
X159131000Y-114935000D01*
X154942040Y-98935040D02*
X152400000Y-96393000D01*
%TO.N,Net-(R28-Pad2)*%
X155641560Y-97088440D02*
X157226000Y-95504000D01*
X158850270Y-113665000D02*
X155641560Y-110456290D01*
X155641560Y-110456290D02*
X155641560Y-97088440D01*
X161085000Y-113665000D02*
X158850270Y-113665000D01*
%TO.N,Net-(D3-Pad1)*%
X148844000Y-123317000D02*
X158091500Y-123317000D01*
X144907000Y-119380000D02*
X148844000Y-123317000D01*
%TO.N,Net-(D4-Pad1)*%
X148971000Y-125476000D02*
X132715000Y-109220000D01*
X158091500Y-125476000D02*
X148971000Y-125476000D01*
%TD*%
%TA.AperFunction,Conductor*%
%TO.N,VCC_net*%
G36*
X149990755Y-84728400D02*
G01*
X150460664Y-84740294D01*
X150968532Y-84753150D01*
X150973551Y-84753378D01*
X151409989Y-84781984D01*
X151949507Y-84817346D01*
X151954546Y-84817778D01*
X152927149Y-84920861D01*
X152932167Y-84921495D01*
X153460170Y-84998993D01*
X153899840Y-85063525D01*
X153904801Y-85064355D01*
X154268284Y-85132707D01*
X154866047Y-85245116D01*
X154870998Y-85246151D01*
X155824153Y-85465328D01*
X155829058Y-85466560D01*
X156772666Y-85723817D01*
X156777518Y-85725245D01*
X157710034Y-86020161D01*
X157714824Y-86021782D01*
X158383719Y-86263258D01*
X158634777Y-86353892D01*
X158639499Y-86355705D01*
X159545348Y-86724454D01*
X159549993Y-86726454D01*
X160440356Y-87131278D01*
X160444917Y-87133464D01*
X160823109Y-87324088D01*
X161318276Y-87573673D01*
X161322722Y-87576025D01*
X161615319Y-87738549D01*
X162177754Y-88050954D01*
X162182125Y-88053498D01*
X163017386Y-88562344D01*
X163021652Y-88565062D01*
X163835805Y-89107008D01*
X163839953Y-89109891D01*
X164421920Y-89531938D01*
X164631724Y-89684090D01*
X164635751Y-89687136D01*
X165403850Y-90292656D01*
X165407724Y-90295838D01*
X166148357Y-90929518D01*
X166150910Y-90931702D01*
X166154686Y-90935067D01*
X166871716Y-91600208D01*
X166875354Y-91603721D01*
X167565123Y-92297111D01*
X167568618Y-92300768D01*
X167990699Y-92760582D01*
X168123425Y-92905173D01*
X168230010Y-93021287D01*
X168233351Y-93025076D01*
X168699150Y-93575299D01*
X168865292Y-93771554D01*
X168868482Y-93775479D01*
X169469955Y-94546716D01*
X169472980Y-94550759D01*
X169535475Y-94637891D01*
X170043032Y-95345533D01*
X170045896Y-95349701D01*
X170583575Y-96166686D01*
X170586270Y-96170966D01*
X171090718Y-97008851D01*
X171093240Y-97013235D01*
X171563683Y-97870739D01*
X171566022Y-97875214D01*
X171969167Y-98685565D01*
X172001670Y-98750899D01*
X172003824Y-98755458D01*
X172172431Y-99131502D01*
X172403973Y-99647912D01*
X172405949Y-99652568D01*
X172769951Y-100560340D01*
X172771739Y-100565071D01*
X173093631Y-101471550D01*
X173099020Y-101486727D01*
X173100615Y-101491519D01*
X173132488Y-101594168D01*
X173390656Y-102425606D01*
X173392058Y-102430465D01*
X173475243Y-102742000D01*
X173607904Y-103238829D01*
X173644372Y-103375407D01*
X173645563Y-103380254D01*
X173859764Y-104334622D01*
X173860767Y-104339553D01*
X174036489Y-105301715D01*
X174037297Y-105306707D01*
X174174257Y-106275095D01*
X174174865Y-106280116D01*
X174223005Y-106758193D01*
X174257078Y-107096568D01*
X174272854Y-107253243D01*
X174273259Y-107258272D01*
X174331223Y-108219729D01*
X174332117Y-108234566D01*
X174332319Y-108239605D01*
X174351869Y-109213435D01*
X174351962Y-109218091D01*
X174351980Y-109221919D01*
X174349150Y-109492128D01*
X174346648Y-109730997D01*
X174346549Y-109734843D01*
X174339035Y-109917933D01*
X174306543Y-110709707D01*
X174306421Y-110712678D01*
X174306113Y-110717704D01*
X174236804Y-111569834D01*
X174226823Y-111692550D01*
X174226312Y-111697581D01*
X174107967Y-112668424D01*
X174107255Y-112673432D01*
X173950038Y-113638781D01*
X173949125Y-113643755D01*
X173753298Y-114601997D01*
X173752186Y-114606931D01*
X173518060Y-115556542D01*
X173516751Y-115561427D01*
X173268406Y-116419033D01*
X173244706Y-116500874D01*
X173243202Y-116505701D01*
X173057808Y-117061399D01*
X172933670Y-117433486D01*
X172931978Y-117438238D01*
X172836960Y-117689033D01*
X172585463Y-118352848D01*
X172583577Y-118357540D01*
X172200633Y-119257515D01*
X172198559Y-119262129D01*
X171779820Y-120145980D01*
X171777564Y-120150506D01*
X171645511Y-120402565D01*
X171359241Y-120948988D01*
X171323672Y-121016880D01*
X171321239Y-121021305D01*
X171180151Y-121266169D01*
X170832956Y-121868742D01*
X170830344Y-121873072D01*
X170308450Y-122700225D01*
X170305666Y-122704448D01*
X169750975Y-123510021D01*
X169748023Y-123514128D01*
X169161469Y-124296766D01*
X169158355Y-124300751D01*
X168540880Y-125059201D01*
X168537609Y-125063059D01*
X167890170Y-125796144D01*
X167886747Y-125799867D01*
X167210402Y-126506386D01*
X167206832Y-126509968D01*
X166502691Y-127188762D01*
X166498980Y-127192198D01*
X165768175Y-127842179D01*
X165764329Y-127845464D01*
X165008025Y-128465594D01*
X165004051Y-128468722D01*
X164427909Y-128903666D01*
X164223455Y-129058013D01*
X164219358Y-129060979D01*
X163415725Y-129618478D01*
X163411512Y-129621276D01*
X163083294Y-129829972D01*
X162586184Y-130146057D01*
X162581894Y-130148665D01*
X161736149Y-130639913D01*
X161731735Y-130642360D01*
X161061333Y-130996571D01*
X160866951Y-131099274D01*
X160862442Y-131101541D01*
X160048197Y-131490789D01*
X159980049Y-131523367D01*
X159975448Y-131525455D01*
X159410779Y-131768056D01*
X159076792Y-131911548D01*
X159072113Y-131913447D01*
X158258479Y-132224958D01*
X158158746Y-132263142D01*
X158153987Y-132264856D01*
X157227283Y-132577627D01*
X157222459Y-132579148D01*
X156283967Y-132854471D01*
X156279087Y-132855797D01*
X156251867Y-132862609D01*
X155330275Y-133093242D01*
X155325380Y-133094363D01*
X154893751Y-133184142D01*
X154367805Y-133293539D01*
X154362834Y-133294469D01*
X153398064Y-133455051D01*
X153393059Y-133455781D01*
X152422629Y-133577514D01*
X152417599Y-133578043D01*
X151730898Y-133636311D01*
X151443033Y-133660736D01*
X151437992Y-133661062D01*
X150460929Y-133704576D01*
X150455876Y-133704700D01*
X150118113Y-133706174D01*
X149477811Y-133708967D01*
X149472754Y-133708887D01*
X149427365Y-133707262D01*
X148495345Y-133673901D01*
X148490318Y-133673621D01*
X148070931Y-133641719D01*
X147515061Y-133599435D01*
X147510027Y-133598950D01*
X146538577Y-133485690D01*
X146533566Y-133485004D01*
X145567414Y-133332845D01*
X145562435Y-133331958D01*
X144603186Y-133141151D01*
X144598246Y-133140065D01*
X143647405Y-132910911D01*
X143642513Y-132909627D01*
X142701684Y-132642512D01*
X142696847Y-132641034D01*
X141767433Y-132336357D01*
X141762660Y-132334685D01*
X140846264Y-131992970D01*
X140841561Y-131991108D01*
X140189755Y-131717783D01*
X139939595Y-131612882D01*
X139934994Y-131610843D01*
X139048920Y-131196718D01*
X139044393Y-131194490D01*
X138175673Y-130745150D01*
X138171240Y-130742743D01*
X137321243Y-130258896D01*
X137316902Y-130256309D01*
X136765791Y-129912605D01*
X136627472Y-129826341D01*
X144180888Y-129826341D01*
X144180983Y-129829971D01*
X144180983Y-129829972D01*
X144189875Y-130169546D01*
X144189970Y-130173171D01*
X144238856Y-130516660D01*
X144326897Y-130852253D01*
X144452927Y-131175503D01*
X144454624Y-131178708D01*
X144588113Y-131430825D01*
X144615275Y-131482126D01*
X144617325Y-131485109D01*
X144617327Y-131485112D01*
X144809733Y-131765064D01*
X144809739Y-131765071D01*
X144811790Y-131768056D01*
X144814178Y-131770793D01*
X145007995Y-131992970D01*
X145039866Y-132029505D01*
X145042551Y-132031948D01*
X145252268Y-132222775D01*
X145296481Y-132263006D01*
X145578233Y-132465466D01*
X145881388Y-132634200D01*
X146201928Y-132766972D01*
X146205422Y-132767967D01*
X146205424Y-132767968D01*
X146532103Y-132861025D01*
X146532108Y-132861026D01*
X146535604Y-132862022D01*
X146732304Y-132894233D01*
X146874412Y-132917504D01*
X146874419Y-132917505D01*
X146877993Y-132918090D01*
X147051276Y-132926262D01*
X147220931Y-132934263D01*
X147220932Y-132934263D01*
X147224558Y-132934434D01*
X147233415Y-132933830D01*
X147567073Y-132911084D01*
X147567081Y-132911083D01*
X147570704Y-132910836D01*
X147574279Y-132910173D01*
X147574282Y-132910173D01*
X147908279Y-132848270D01*
X147908283Y-132848269D01*
X147911844Y-132847609D01*
X148243456Y-132745592D01*
X148561145Y-132606136D01*
X148805511Y-132463341D01*
X148857560Y-132432926D01*
X148857562Y-132432925D01*
X148860700Y-132431091D01*
X148989101Y-132334685D01*
X149135244Y-132224958D01*
X149135248Y-132224955D01*
X149138151Y-132222775D01*
X149389819Y-131983950D01*
X149612370Y-131717783D01*
X149681274Y-131612887D01*
X149761476Y-131490789D01*
X149802853Y-131427799D01*
X149931446Y-131172121D01*
X149957117Y-131121080D01*
X149957120Y-131121072D01*
X149958744Y-131117844D01*
X150077977Y-130792026D01*
X150078822Y-130788504D01*
X150078825Y-130788496D01*
X150158124Y-130458191D01*
X150158125Y-130458187D01*
X150158971Y-130454662D01*
X150182661Y-130258899D01*
X150200316Y-130113004D01*
X150200316Y-130112997D01*
X150200652Y-130110225D01*
X150206599Y-129921000D01*
X150206115Y-129912605D01*
X150186836Y-129578246D01*
X150186835Y-129578241D01*
X150186627Y-129574626D01*
X150126976Y-129232842D01*
X150112967Y-129185546D01*
X150076068Y-129060979D01*
X150028437Y-128900180D01*
X149892316Y-128581048D01*
X149842569Y-128493831D01*
X149722208Y-128282816D01*
X149720417Y-128279676D01*
X149515018Y-128000060D01*
X149499671Y-127983544D01*
X149281309Y-127748559D01*
X149278842Y-127745904D01*
X149015019Y-127520578D01*
X148727047Y-127327069D01*
X148418741Y-127167940D01*
X148094189Y-127045302D01*
X148090668Y-127044418D01*
X148090663Y-127044416D01*
X147929378Y-127003904D01*
X147757692Y-126960780D01*
X147735476Y-126957855D01*
X147417315Y-126915968D01*
X147417307Y-126915967D01*
X147413711Y-126915494D01*
X147269045Y-126913221D01*
X147070446Y-126910101D01*
X147070442Y-126910101D01*
X147066804Y-126910044D01*
X147063190Y-126910405D01*
X147063184Y-126910405D01*
X146819843Y-126934694D01*
X146721569Y-126944503D01*
X146382583Y-127018414D01*
X146379156Y-127019587D01*
X146379150Y-127019589D01*
X146300296Y-127046587D01*
X146054339Y-127130797D01*
X145741188Y-127280163D01*
X145447279Y-127464532D01*
X145444443Y-127466804D01*
X145444436Y-127466809D01*
X145200384Y-127662332D01*
X145176509Y-127681459D01*
X144932466Y-127928071D01*
X144930225Y-127930929D01*
X144873732Y-128002978D01*
X144718386Y-128201098D01*
X144716493Y-128204187D01*
X144716491Y-128204190D01*
X144670233Y-128279676D01*
X144537105Y-128496921D01*
X144535580Y-128500206D01*
X144535578Y-128500210D01*
X144496505Y-128584386D01*
X144391027Y-128811620D01*
X144282087Y-129141023D01*
X144281351Y-129144578D01*
X144281350Y-129144581D01*
X144273164Y-129184110D01*
X144211730Y-129480764D01*
X144180888Y-129826341D01*
X136627472Y-129826341D01*
X136486989Y-129738728D01*
X136482788Y-129735989D01*
X135674354Y-129185545D01*
X135670232Y-129182616D01*
X134884514Y-128600153D01*
X134880512Y-128597061D01*
X134118811Y-127983544D01*
X134114937Y-127980293D01*
X134055180Y-127928071D01*
X133378477Y-127336704D01*
X133374742Y-127333306D01*
X133370290Y-127329088D01*
X132689847Y-126684500D01*
X132664704Y-126660682D01*
X132661103Y-126657131D01*
X132135526Y-126117610D01*
X131978630Y-125956552D01*
X131975177Y-125952862D01*
X131836025Y-125798046D01*
X131321367Y-125225457D01*
X131318062Y-125221628D01*
X130693971Y-124468570D01*
X130690823Y-124464612D01*
X130097464Y-123687127D01*
X130094477Y-123683046D01*
X130060041Y-123633957D01*
X129532780Y-122882347D01*
X129529983Y-122878185D01*
X129000869Y-122055585D01*
X128998219Y-122051277D01*
X128502557Y-121208129D01*
X128500082Y-121203718D01*
X128499659Y-121202927D01*
X128038656Y-120341356D01*
X128036366Y-120336861D01*
X128006669Y-120275565D01*
X127609925Y-119456685D01*
X127607812Y-119452092D01*
X127598705Y-119431196D01*
X127498865Y-119202128D01*
X127217027Y-118555488D01*
X127215100Y-118550812D01*
X126860622Y-117639273D01*
X126858884Y-117634524D01*
X126541267Y-116709476D01*
X126539721Y-116704660D01*
X126259490Y-115767633D01*
X126258138Y-115762759D01*
X126230576Y-115655022D01*
X126015730Y-114815209D01*
X126014584Y-114810323D01*
X125810387Y-113853763D01*
X125809437Y-113848826D01*
X125808063Y-113840826D01*
X125643806Y-112884905D01*
X125643050Y-112879904D01*
X125516236Y-111910121D01*
X125515681Y-111905094D01*
X125427889Y-110931000D01*
X125427536Y-110925955D01*
X125378906Y-109949111D01*
X125378756Y-109944056D01*
X125373376Y-109383638D01*
X125371805Y-109220000D01*
X131801496Y-109220000D01*
X131802186Y-109226565D01*
X131820452Y-109400353D01*
X131821458Y-109409928D01*
X131880473Y-109591556D01*
X131883776Y-109597278D01*
X131883777Y-109597279D01*
X131889724Y-109607579D01*
X131975960Y-109756944D01*
X131980378Y-109761851D01*
X131980379Y-109761852D01*
X132056166Y-109846022D01*
X132103747Y-109898866D01*
X132169428Y-109946586D01*
X132225865Y-109987590D01*
X132258248Y-110011118D01*
X132264276Y-110013802D01*
X132264278Y-110013803D01*
X132426681Y-110086109D01*
X132432712Y-110088794D01*
X132439167Y-110090166D01*
X132439176Y-110090169D01*
X132495772Y-110102199D01*
X132558669Y-110136350D01*
X148387230Y-125964911D01*
X148399616Y-125979323D01*
X148408149Y-125990918D01*
X148408154Y-125990923D01*
X148412492Y-125996818D01*
X148418070Y-126001557D01*
X148418073Y-126001560D01*
X148452768Y-126031035D01*
X148460284Y-126037965D01*
X148465980Y-126043661D01*
X148468841Y-126045924D01*
X148468846Y-126045929D01*
X148488266Y-126061293D01*
X148491667Y-126064082D01*
X148547285Y-126111333D01*
X148553798Y-126114659D01*
X148558837Y-126118020D01*
X148563979Y-126121196D01*
X148569716Y-126125734D01*
X148635875Y-126156655D01*
X148639769Y-126158558D01*
X148704808Y-126191769D01*
X148711917Y-126193508D01*
X148717551Y-126195604D01*
X148723321Y-126197523D01*
X148729950Y-126200622D01*
X148737113Y-126202112D01*
X148737116Y-126202113D01*
X148787830Y-126212661D01*
X148801435Y-126215491D01*
X148805701Y-126216457D01*
X148876610Y-126233808D01*
X148882212Y-126234156D01*
X148882215Y-126234156D01*
X148887764Y-126234500D01*
X148887762Y-126234535D01*
X148891734Y-126234775D01*
X148895955Y-126235152D01*
X148903115Y-126236641D01*
X148980542Y-126234546D01*
X148983950Y-126234500D01*
X157057689Y-126234500D01*
X157125810Y-126254502D01*
X157164833Y-126294196D01*
X157230522Y-126400348D01*
X157355697Y-126525305D01*
X157361927Y-126529145D01*
X157361928Y-126529146D01*
X157499090Y-126613694D01*
X157506262Y-126618115D01*
X157586005Y-126644564D01*
X157667611Y-126671632D01*
X157667613Y-126671632D01*
X157674139Y-126673797D01*
X157680975Y-126674497D01*
X157680978Y-126674498D01*
X157724031Y-126678909D01*
X157778600Y-126684500D01*
X158404400Y-126684500D01*
X158407646Y-126684163D01*
X158407650Y-126684163D01*
X158503308Y-126674238D01*
X158503312Y-126674237D01*
X158510166Y-126673526D01*
X158516702Y-126671345D01*
X158516704Y-126671345D01*
X158648806Y-126627272D01*
X158677946Y-126617550D01*
X158828348Y-126524478D01*
X158914784Y-126437891D01*
X158977066Y-126403812D01*
X159047886Y-126408815D01*
X159092976Y-126437736D01*
X159180697Y-126525305D01*
X159186927Y-126529145D01*
X159186928Y-126529146D01*
X159324090Y-126613694D01*
X159331262Y-126618115D01*
X159411005Y-126644564D01*
X159492611Y-126671632D01*
X159492613Y-126671632D01*
X159499139Y-126673797D01*
X159505975Y-126674497D01*
X159505978Y-126674498D01*
X159549031Y-126678909D01*
X159603600Y-126684500D01*
X160229400Y-126684500D01*
X160232646Y-126684163D01*
X160232650Y-126684163D01*
X160328308Y-126674238D01*
X160328312Y-126674237D01*
X160335166Y-126673526D01*
X160341702Y-126671345D01*
X160341704Y-126671345D01*
X160473806Y-126627272D01*
X160502946Y-126617550D01*
X160653348Y-126524478D01*
X160671409Y-126506386D01*
X160773134Y-126404483D01*
X160778305Y-126399303D01*
X160871115Y-126248738D01*
X160872538Y-126244448D01*
X160918696Y-126192027D01*
X160947138Y-126178697D01*
X160972899Y-126170351D01*
X160979154Y-126166555D01*
X160984628Y-126164049D01*
X160990058Y-126161330D01*
X160996937Y-126158833D01*
X161003058Y-126154820D01*
X161057976Y-126118814D01*
X161061680Y-126116477D01*
X161124107Y-126078595D01*
X161132484Y-126071197D01*
X161132508Y-126071224D01*
X161135500Y-126068571D01*
X161138733Y-126065868D01*
X161144852Y-126061856D01*
X161198128Y-126005617D01*
X161200506Y-126003175D01*
X165969911Y-121233770D01*
X165984323Y-121221384D01*
X165995918Y-121212851D01*
X165995923Y-121212846D01*
X166001818Y-121208508D01*
X166006557Y-121202930D01*
X166006560Y-121202927D01*
X166036035Y-121168232D01*
X166042965Y-121160716D01*
X166048661Y-121155020D01*
X166050924Y-121152159D01*
X166050929Y-121152154D01*
X166066285Y-121132744D01*
X166069074Y-121129342D01*
X166111596Y-121079291D01*
X166111597Y-121079290D01*
X166116333Y-121073715D01*
X166119661Y-121067198D01*
X166123027Y-121062150D01*
X166126190Y-121057028D01*
X166130735Y-121051284D01*
X166161664Y-120985105D01*
X166163563Y-120981221D01*
X166196769Y-120916192D01*
X166198510Y-120909077D01*
X166200613Y-120903422D01*
X166202522Y-120897683D01*
X166205622Y-120891050D01*
X166220491Y-120819565D01*
X166221461Y-120815282D01*
X166237473Y-120749844D01*
X166238808Y-120744390D01*
X166239500Y-120733236D01*
X166239535Y-120733238D01*
X166239775Y-120729266D01*
X166240152Y-120725045D01*
X166241641Y-120717885D01*
X166239546Y-120640458D01*
X166239500Y-120637050D01*
X166239500Y-120254371D01*
X166259502Y-120186250D01*
X166276405Y-120165276D01*
X168671911Y-117769770D01*
X168734223Y-117735744D01*
X168805038Y-117740809D01*
X168861874Y-117783356D01*
X168882003Y-117823712D01*
X168900855Y-117888601D01*
X168904892Y-117895427D01*
X168981509Y-118024980D01*
X168981511Y-118024983D01*
X168985547Y-118031807D01*
X169103193Y-118149453D01*
X169110017Y-118153489D01*
X169110020Y-118153491D01*
X169167425Y-118187440D01*
X169246399Y-118234145D01*
X169254010Y-118236356D01*
X169254012Y-118236357D01*
X169261399Y-118238503D01*
X169406169Y-118280562D01*
X169412574Y-118281066D01*
X169412579Y-118281067D01*
X169441042Y-118283307D01*
X169441050Y-118283307D01*
X169443498Y-118283500D01*
X169500500Y-118283500D01*
X169568621Y-118303502D01*
X169615114Y-118357158D01*
X169626500Y-118409500D01*
X169626500Y-118419871D01*
X169609620Y-118482870D01*
X169599473Y-118500444D01*
X169540458Y-118682072D01*
X169539768Y-118688633D01*
X169539768Y-118688635D01*
X169537938Y-118706045D01*
X169520496Y-118872000D01*
X169540458Y-119061928D01*
X169599473Y-119243556D01*
X169694960Y-119408944D01*
X169699378Y-119413851D01*
X169699379Y-119413852D01*
X169735889Y-119454400D01*
X169822747Y-119550866D01*
X169977248Y-119663118D01*
X169983276Y-119665802D01*
X169983278Y-119665803D01*
X170121062Y-119727148D01*
X170151712Y-119740794D01*
X170245113Y-119760647D01*
X170332056Y-119779128D01*
X170332061Y-119779128D01*
X170338513Y-119780500D01*
X170529487Y-119780500D01*
X170535939Y-119779128D01*
X170535944Y-119779128D01*
X170622887Y-119760647D01*
X170716288Y-119740794D01*
X170746938Y-119727148D01*
X170884722Y-119665803D01*
X170884724Y-119665802D01*
X170890752Y-119663118D01*
X171045253Y-119550866D01*
X171132111Y-119454400D01*
X171168621Y-119413852D01*
X171168622Y-119413851D01*
X171173040Y-119408944D01*
X171268527Y-119243556D01*
X171327542Y-119061928D01*
X171347504Y-118872000D01*
X171330062Y-118706045D01*
X171328232Y-118688635D01*
X171328232Y-118688633D01*
X171327542Y-118682072D01*
X171268527Y-118500444D01*
X171251087Y-118470237D01*
X171234349Y-118401242D01*
X171257569Y-118334150D01*
X171313377Y-118290263D01*
X171350322Y-118281625D01*
X171352239Y-118281474D01*
X171357420Y-118281067D01*
X171357424Y-118281066D01*
X171363831Y-118280562D01*
X171508601Y-118238503D01*
X171515988Y-118236357D01*
X171515990Y-118236356D01*
X171523601Y-118234145D01*
X171602575Y-118187440D01*
X171659980Y-118153491D01*
X171659983Y-118153489D01*
X171666807Y-118149453D01*
X171784453Y-118031807D01*
X171788489Y-118024983D01*
X171788491Y-118024980D01*
X171865108Y-117895427D01*
X171869145Y-117888601D01*
X171915562Y-117728831D01*
X171918500Y-117691502D01*
X171918500Y-117258498D01*
X171915562Y-117221169D01*
X171869145Y-117061399D01*
X171784453Y-116918193D01*
X171781771Y-116915511D01*
X171756498Y-116851139D01*
X171770400Y-116781516D01*
X171780572Y-116765688D01*
X171784453Y-116761807D01*
X171869145Y-116618601D01*
X171915562Y-116458831D01*
X171918500Y-116421502D01*
X171918500Y-115988498D01*
X171915562Y-115951169D01*
X171869145Y-115791399D01*
X171784453Y-115648193D01*
X171781771Y-115645511D01*
X171756498Y-115581139D01*
X171770400Y-115511516D01*
X171780572Y-115495688D01*
X171784453Y-115491807D01*
X171869145Y-115348601D01*
X171915562Y-115188831D01*
X171918500Y-115151502D01*
X171918500Y-114718498D01*
X171915562Y-114681169D01*
X171869145Y-114521399D01*
X171784453Y-114378193D01*
X171781771Y-114375511D01*
X171756498Y-114311139D01*
X171770400Y-114241516D01*
X171780572Y-114225688D01*
X171784453Y-114221807D01*
X171869145Y-114078601D01*
X171915562Y-113918831D01*
X171918500Y-113881502D01*
X171918500Y-113448498D01*
X171917762Y-113439115D01*
X171916067Y-113417579D01*
X171916066Y-113417574D01*
X171915562Y-113411169D01*
X171869145Y-113251399D01*
X171784453Y-113108193D01*
X171781771Y-113105511D01*
X171756498Y-113041139D01*
X171770400Y-112971516D01*
X171780572Y-112955688D01*
X171784453Y-112951807D01*
X171869145Y-112808601D01*
X171915562Y-112648831D01*
X171916849Y-112632489D01*
X171918307Y-112613958D01*
X171918307Y-112613950D01*
X171918500Y-112611502D01*
X171918500Y-112178498D01*
X171916395Y-112151748D01*
X171916067Y-112147579D01*
X171916066Y-112147574D01*
X171915562Y-112141169D01*
X171883125Y-112029520D01*
X171871357Y-111989012D01*
X171871356Y-111989010D01*
X171869145Y-111981399D01*
X171784453Y-111838193D01*
X171781771Y-111835511D01*
X171756498Y-111771139D01*
X171770400Y-111701516D01*
X171780572Y-111685688D01*
X171784453Y-111681807D01*
X171869145Y-111538601D01*
X171876253Y-111514137D01*
X171898956Y-111435990D01*
X171915562Y-111378831D01*
X171916271Y-111369833D01*
X171918307Y-111343958D01*
X171918307Y-111343950D01*
X171918500Y-111341502D01*
X171918500Y-110908498D01*
X171915562Y-110871169D01*
X171881360Y-110753444D01*
X171871357Y-110719012D01*
X171871356Y-110719010D01*
X171869145Y-110711399D01*
X171784453Y-110568193D01*
X171781771Y-110565511D01*
X171756498Y-110501139D01*
X171770400Y-110431516D01*
X171780572Y-110415688D01*
X171784453Y-110411807D01*
X171869145Y-110268601D01*
X171915562Y-110108831D01*
X171917051Y-110089919D01*
X171918307Y-110073958D01*
X171918307Y-110073950D01*
X171918500Y-110071502D01*
X171918500Y-109638498D01*
X171918136Y-109633870D01*
X171916067Y-109607579D01*
X171916066Y-109607574D01*
X171915562Y-109601169D01*
X171878473Y-109473507D01*
X171871357Y-109449012D01*
X171871356Y-109449010D01*
X171869145Y-109441399D01*
X171784453Y-109298193D01*
X171781771Y-109295511D01*
X171756498Y-109231139D01*
X171770400Y-109161516D01*
X171780572Y-109145688D01*
X171784453Y-109141807D01*
X171869145Y-108998601D01*
X171876253Y-108974137D01*
X171896777Y-108903489D01*
X171915562Y-108838831D01*
X171916849Y-108822489D01*
X171918307Y-108803958D01*
X171918307Y-108803950D01*
X171918500Y-108801502D01*
X171918500Y-108368498D01*
X171918307Y-108366042D01*
X171916067Y-108337579D01*
X171916066Y-108337574D01*
X171915562Y-108331169D01*
X171881360Y-108213444D01*
X171871357Y-108179012D01*
X171871356Y-108179010D01*
X171869145Y-108171399D01*
X171784453Y-108028193D01*
X171781771Y-108025511D01*
X171756498Y-107961139D01*
X171770400Y-107891516D01*
X171780572Y-107875688D01*
X171784453Y-107871807D01*
X171869145Y-107728601D01*
X171879698Y-107692279D01*
X171900319Y-107621297D01*
X171915562Y-107568831D01*
X171918500Y-107531502D01*
X171918500Y-107098498D01*
X171918106Y-107093488D01*
X171916067Y-107067579D01*
X171916066Y-107067574D01*
X171915562Y-107061169D01*
X171881360Y-106943444D01*
X171871357Y-106909012D01*
X171871356Y-106909010D01*
X171869145Y-106901399D01*
X171784453Y-106758193D01*
X171781771Y-106755511D01*
X171756498Y-106691139D01*
X171770400Y-106621516D01*
X171780572Y-106605688D01*
X171784453Y-106601807D01*
X171869145Y-106458601D01*
X171871415Y-106450790D01*
X171913767Y-106305008D01*
X171915562Y-106298831D01*
X171917233Y-106277609D01*
X171918307Y-106263958D01*
X171918307Y-106263950D01*
X171918500Y-106261502D01*
X171918500Y-105828498D01*
X171915562Y-105791169D01*
X171886528Y-105691231D01*
X171871357Y-105639012D01*
X171871356Y-105639010D01*
X171869145Y-105631399D01*
X171830171Y-105565498D01*
X171788491Y-105495020D01*
X171788489Y-105495017D01*
X171784453Y-105488193D01*
X171666807Y-105370547D01*
X171659983Y-105366511D01*
X171659980Y-105366509D01*
X171530427Y-105289892D01*
X171530428Y-105289892D01*
X171523601Y-105285855D01*
X171515990Y-105283644D01*
X171515988Y-105283643D01*
X171463769Y-105268472D01*
X171363831Y-105239438D01*
X171357426Y-105238934D01*
X171357421Y-105238933D01*
X171328958Y-105236693D01*
X171328950Y-105236693D01*
X171326502Y-105236500D01*
X171269500Y-105236500D01*
X171201379Y-105216498D01*
X171154886Y-105162842D01*
X171143500Y-105110500D01*
X171143500Y-99967070D01*
X171144933Y-99948120D01*
X171147099Y-99933885D01*
X171147099Y-99933881D01*
X171148199Y-99926651D01*
X171146874Y-99910353D01*
X171143915Y-99873982D01*
X171143500Y-99863767D01*
X171143500Y-99855707D01*
X171140837Y-99832866D01*
X171140211Y-99827493D01*
X171139778Y-99823118D01*
X171134454Y-99757661D01*
X171134453Y-99757658D01*
X171133860Y-99750363D01*
X171131604Y-99743399D01*
X171130413Y-99737440D01*
X171129029Y-99731585D01*
X171128182Y-99724319D01*
X171103265Y-99655673D01*
X171101848Y-99651545D01*
X171081607Y-99589064D01*
X171081606Y-99589062D01*
X171079351Y-99582101D01*
X171075555Y-99575846D01*
X171073049Y-99570372D01*
X171070330Y-99564942D01*
X171067833Y-99558063D01*
X171039954Y-99515541D01*
X171027814Y-99497024D01*
X171025467Y-99493305D01*
X170987595Y-99430893D01*
X170980197Y-99422516D01*
X170980224Y-99422492D01*
X170977571Y-99419500D01*
X170974868Y-99416267D01*
X170970856Y-99410148D01*
X170914617Y-99356872D01*
X170912175Y-99354494D01*
X170039259Y-98481578D01*
X170026873Y-98467166D01*
X170018340Y-98455571D01*
X170018335Y-98455566D01*
X170013997Y-98449671D01*
X170008419Y-98444932D01*
X170008416Y-98444929D01*
X169973721Y-98415454D01*
X169966205Y-98408524D01*
X169960510Y-98402829D01*
X169954369Y-98397971D01*
X169938238Y-98385208D01*
X169934834Y-98382417D01*
X169884786Y-98339898D01*
X169884784Y-98339897D01*
X169879204Y-98335156D01*
X169872688Y-98331828D01*
X169867639Y-98328461D01*
X169862510Y-98325294D01*
X169856773Y-98320755D01*
X169790614Y-98289834D01*
X169786714Y-98287928D01*
X169721681Y-98254720D01*
X169714573Y-98252981D01*
X169708930Y-98250882D01*
X169703167Y-98248965D01*
X169696539Y-98245867D01*
X169625072Y-98231002D01*
X169620788Y-98230032D01*
X169549879Y-98212681D01*
X169544277Y-98212333D01*
X169544274Y-98212333D01*
X169538725Y-98211989D01*
X169538727Y-98211953D01*
X169534734Y-98211714D01*
X169530542Y-98211340D01*
X169523374Y-98209849D01*
X169457164Y-98211640D01*
X169445968Y-98211943D01*
X169442561Y-98211989D01*
X165678076Y-98211989D01*
X165604017Y-98187926D01*
X165597587Y-98183254D01*
X165597580Y-98183250D01*
X165592241Y-98179371D01*
X165586213Y-98176687D01*
X165586211Y-98176686D01*
X165423808Y-98104380D01*
X165423807Y-98104380D01*
X165417777Y-98101695D01*
X165324377Y-98081842D01*
X165237433Y-98063361D01*
X165237428Y-98063361D01*
X165230976Y-98061989D01*
X165040002Y-98061989D01*
X165033550Y-98063361D01*
X165033545Y-98063361D01*
X164894829Y-98092847D01*
X164853201Y-98101695D01*
X164847168Y-98104381D01*
X164847165Y-98104382D01*
X164722119Y-98160056D01*
X164651752Y-98169490D01*
X164620399Y-98158289D01*
X164619695Y-98159915D01*
X164612420Y-98156767D01*
X164605596Y-98152731D01*
X164597985Y-98150520D01*
X164597983Y-98150519D01*
X164455644Y-98109166D01*
X164455645Y-98109166D01*
X164449466Y-98107371D01*
X164443059Y-98106867D01*
X164443055Y-98106866D01*
X164415444Y-98104693D01*
X164415438Y-98104693D01*
X164412989Y-98104500D01*
X164213122Y-98104500D01*
X164013012Y-98104501D01*
X163976534Y-98107371D01*
X163879730Y-98135495D01*
X163828017Y-98150519D01*
X163828015Y-98150520D01*
X163820404Y-98152731D01*
X163766647Y-98184523D01*
X163697834Y-98201982D01*
X163638370Y-98184522D01*
X163592220Y-98157229D01*
X163577783Y-98150981D01*
X163464395Y-98118039D01*
X163450295Y-98118079D01*
X163447000Y-98125349D01*
X163447000Y-98595458D01*
X163441997Y-98630610D01*
X163439166Y-98640353D01*
X163439165Y-98640360D01*
X163437371Y-98646534D01*
X163436867Y-98652941D01*
X163436866Y-98652945D01*
X163434693Y-98680556D01*
X163434500Y-98683011D01*
X163434501Y-99182988D01*
X163437371Y-99219466D01*
X163439167Y-99225648D01*
X163439168Y-99225653D01*
X163441997Y-99235390D01*
X163447000Y-99270542D01*
X163447000Y-99865458D01*
X163441997Y-99900610D01*
X163439166Y-99910353D01*
X163439165Y-99910360D01*
X163437371Y-99916534D01*
X163436867Y-99922941D01*
X163436866Y-99922945D01*
X163434693Y-99950556D01*
X163434500Y-99953011D01*
X163434501Y-100452988D01*
X163437371Y-100489466D01*
X163439167Y-100495648D01*
X163439168Y-100495653D01*
X163441997Y-100505390D01*
X163447000Y-100540542D01*
X163447000Y-101135458D01*
X163441997Y-101170610D01*
X163439166Y-101180353D01*
X163439165Y-101180360D01*
X163437371Y-101186534D01*
X163436867Y-101192941D01*
X163436866Y-101192945D01*
X163434693Y-101220556D01*
X163434500Y-101223011D01*
X163434501Y-101722988D01*
X163437371Y-101759466D01*
X163439167Y-101765648D01*
X163439168Y-101765653D01*
X163441997Y-101775390D01*
X163447000Y-101810542D01*
X163447000Y-102405458D01*
X163441997Y-102440610D01*
X163439166Y-102450353D01*
X163439165Y-102450360D01*
X163437371Y-102456534D01*
X163436867Y-102462941D01*
X163436866Y-102462945D01*
X163434693Y-102490556D01*
X163434500Y-102493011D01*
X163434501Y-102992988D01*
X163437371Y-103029466D01*
X163439167Y-103035648D01*
X163439168Y-103035653D01*
X163441997Y-103045390D01*
X163447000Y-103080542D01*
X163447000Y-103675458D01*
X163441997Y-103710610D01*
X163439166Y-103720353D01*
X163439165Y-103720360D01*
X163437371Y-103726534D01*
X163436867Y-103732941D01*
X163436866Y-103732945D01*
X163434693Y-103760556D01*
X163434500Y-103763011D01*
X163434501Y-104262988D01*
X163437371Y-104299466D01*
X163439167Y-104305648D01*
X163439168Y-104305653D01*
X163441997Y-104315390D01*
X163447000Y-104350542D01*
X163447000Y-104814900D01*
X163450973Y-104828431D01*
X163458871Y-104829566D01*
X163577783Y-104795019D01*
X163592220Y-104788771D01*
X163638370Y-104761478D01*
X163707187Y-104744018D01*
X163766646Y-104761477D01*
X163820404Y-104793269D01*
X163828015Y-104795480D01*
X163828017Y-104795481D01*
X163875655Y-104809321D01*
X163976534Y-104838629D01*
X163982941Y-104839133D01*
X163982945Y-104839134D01*
X164010556Y-104841307D01*
X164010562Y-104841307D01*
X164013011Y-104841500D01*
X164212878Y-104841500D01*
X164412988Y-104841499D01*
X164449466Y-104838629D01*
X164551043Y-104809118D01*
X164622038Y-104809321D01*
X164660255Y-104828179D01*
X164678737Y-104841607D01*
X164684765Y-104844291D01*
X164684767Y-104844292D01*
X164847170Y-104916598D01*
X164853201Y-104919283D01*
X164859656Y-104920655D01*
X164859665Y-104920658D01*
X164916261Y-104932688D01*
X164979158Y-104966839D01*
X166016035Y-106003716D01*
X166050061Y-106066028D01*
X166052940Y-106092811D01*
X166052940Y-108855775D01*
X166051507Y-108874725D01*
X166049535Y-108887689D01*
X166048241Y-108896194D01*
X166048834Y-108903486D01*
X166048834Y-108903489D01*
X166052525Y-108948863D01*
X166052940Y-108959078D01*
X166052940Y-108967138D01*
X166053365Y-108970782D01*
X166056229Y-108995352D01*
X166056662Y-108999727D01*
X166061910Y-109064240D01*
X166062580Y-109072482D01*
X166064836Y-109079446D01*
X166066027Y-109085405D01*
X166067411Y-109091260D01*
X166068258Y-109098526D01*
X166093175Y-109167172D01*
X166094592Y-109171300D01*
X166112496Y-109226565D01*
X166117089Y-109240744D01*
X166120885Y-109246999D01*
X166123391Y-109252473D01*
X166126110Y-109257903D01*
X166128607Y-109264782D01*
X166132620Y-109270902D01*
X166132620Y-109270903D01*
X166168626Y-109325821D01*
X166170963Y-109329525D01*
X166208845Y-109391952D01*
X166212561Y-109396160D01*
X166212562Y-109396161D01*
X166216243Y-109400329D01*
X166216216Y-109400353D01*
X166218869Y-109403345D01*
X166221572Y-109406578D01*
X166225584Y-109412697D01*
X166230896Y-109417729D01*
X166281823Y-109465973D01*
X166284265Y-109468351D01*
X168263454Y-111447540D01*
X168297480Y-111509852D01*
X168292415Y-111580667D01*
X168249868Y-111637503D01*
X168217352Y-111655073D01*
X168157691Y-111676729D01*
X168153545Y-111678152D01*
X168091064Y-111698393D01*
X168091062Y-111698394D01*
X168084101Y-111700649D01*
X168077846Y-111704445D01*
X168072372Y-111706951D01*
X168066942Y-111709670D01*
X168060063Y-111712167D01*
X167999016Y-111752191D01*
X167995327Y-111754518D01*
X167986294Y-111760000D01*
X167937693Y-111789491D01*
X167937688Y-111789495D01*
X167932892Y-111792405D01*
X167924516Y-111799803D01*
X167924493Y-111799777D01*
X167921503Y-111802426D01*
X167918264Y-111805134D01*
X167912148Y-111809144D01*
X167907121Y-111814451D01*
X167907117Y-111814454D01*
X167858872Y-111865383D01*
X167856494Y-111867825D01*
X166389089Y-113335230D01*
X166374677Y-113347616D01*
X166363082Y-113356149D01*
X166363077Y-113356154D01*
X166357182Y-113360492D01*
X166352443Y-113366070D01*
X166352440Y-113366073D01*
X166322965Y-113400768D01*
X166316035Y-113408284D01*
X166310340Y-113413979D01*
X166308060Y-113416861D01*
X166292719Y-113436251D01*
X166289928Y-113439655D01*
X166247409Y-113489703D01*
X166242667Y-113495285D01*
X166239339Y-113501801D01*
X166235972Y-113506850D01*
X166232805Y-113511979D01*
X166228266Y-113517716D01*
X166197345Y-113583875D01*
X166195442Y-113587769D01*
X166162231Y-113652808D01*
X166160492Y-113659916D01*
X166158393Y-113665559D01*
X166156476Y-113671322D01*
X166153378Y-113677950D01*
X166151888Y-113685112D01*
X166151888Y-113685113D01*
X166138514Y-113749412D01*
X166137544Y-113753696D01*
X166120192Y-113824610D01*
X166119500Y-113835764D01*
X166119464Y-113835762D01*
X166119225Y-113839755D01*
X166118851Y-113843947D01*
X166117360Y-113851115D01*
X166119018Y-113912421D01*
X166119454Y-113928521D01*
X166119500Y-113931928D01*
X166119500Y-115003089D01*
X166099498Y-115071210D01*
X166082595Y-115092184D01*
X160812184Y-120362595D01*
X160749872Y-120396621D01*
X160723089Y-120399500D01*
X155306371Y-120399500D01*
X155238250Y-120379498D01*
X155217276Y-120362595D01*
X154971125Y-120116444D01*
X154940387Y-120066285D01*
X154924933Y-120018721D01*
X154885527Y-119897444D01*
X154790040Y-119732056D01*
X154662253Y-119590134D01*
X154563157Y-119518136D01*
X154513094Y-119481763D01*
X154513093Y-119481762D01*
X154507752Y-119477882D01*
X154501724Y-119475198D01*
X154501722Y-119475197D01*
X154339319Y-119402891D01*
X154339318Y-119402891D01*
X154333288Y-119400206D01*
X154238227Y-119380000D01*
X154152944Y-119361872D01*
X154152939Y-119361872D01*
X154146487Y-119360500D01*
X153955513Y-119360500D01*
X153949061Y-119361872D01*
X153949056Y-119361872D01*
X153863773Y-119380000D01*
X153768712Y-119400206D01*
X153762682Y-119402891D01*
X153762681Y-119402891D01*
X153600278Y-119475197D01*
X153600276Y-119475198D01*
X153594248Y-119477882D01*
X153588907Y-119481762D01*
X153588906Y-119481763D01*
X153538843Y-119518136D01*
X153439747Y-119590134D01*
X153311960Y-119732056D01*
X153216473Y-119897444D01*
X153157458Y-120079072D01*
X153137496Y-120269000D01*
X153157458Y-120458928D01*
X153216473Y-120640556D01*
X153311960Y-120805944D01*
X153316378Y-120810851D01*
X153316379Y-120810852D01*
X153439747Y-120947866D01*
X153438501Y-120948988D01*
X153471352Y-121002305D01*
X153470003Y-121073288D01*
X153430492Y-121132275D01*
X153365362Y-121160536D01*
X153349803Y-121161500D01*
X152258371Y-121161500D01*
X152190250Y-121141498D01*
X152169276Y-121124595D01*
X151288125Y-120243444D01*
X151257387Y-120193285D01*
X151204569Y-120030729D01*
X151202527Y-120024444D01*
X151107040Y-119859056D01*
X151090367Y-119840538D01*
X150983675Y-119722045D01*
X150983674Y-119722044D01*
X150979253Y-119717134D01*
X150824752Y-119604882D01*
X150818724Y-119602198D01*
X150818722Y-119602197D01*
X150656319Y-119529891D01*
X150656318Y-119529891D01*
X150650288Y-119527206D01*
X150556887Y-119507353D01*
X150469944Y-119488872D01*
X150469939Y-119488872D01*
X150463487Y-119487500D01*
X150272513Y-119487500D01*
X150266061Y-119488872D01*
X150266056Y-119488872D01*
X150179113Y-119507353D01*
X150085712Y-119527206D01*
X150079682Y-119529891D01*
X150079681Y-119529891D01*
X149917278Y-119602197D01*
X149917276Y-119602198D01*
X149911248Y-119604882D01*
X149756747Y-119717134D01*
X149752326Y-119722044D01*
X149752325Y-119722045D01*
X149645634Y-119840538D01*
X149628960Y-119859056D01*
X149533473Y-120024444D01*
X149474458Y-120206072D01*
X149473768Y-120212633D01*
X149473768Y-120212635D01*
X149468534Y-120262435D01*
X149454496Y-120396000D01*
X149474458Y-120585928D01*
X149533473Y-120767556D01*
X149628960Y-120932944D01*
X149633378Y-120937851D01*
X149633379Y-120937852D01*
X149735514Y-121051284D01*
X149756747Y-121074866D01*
X149911248Y-121187118D01*
X149917276Y-121189802D01*
X149917278Y-121189803D01*
X150079681Y-121262109D01*
X150085712Y-121264794D01*
X150092167Y-121266166D01*
X150092176Y-121266169D01*
X150148772Y-121278199D01*
X150211669Y-121312350D01*
X151242724Y-122343405D01*
X151276750Y-122405717D01*
X151271685Y-122476532D01*
X151229138Y-122533368D01*
X151162618Y-122558179D01*
X151153629Y-122558500D01*
X149210371Y-122558500D01*
X149142250Y-122538498D01*
X149121276Y-122521595D01*
X145827125Y-119227444D01*
X145796387Y-119177285D01*
X145743569Y-119014729D01*
X145743568Y-119014726D01*
X145741527Y-119008444D01*
X145646040Y-118843056D01*
X145518253Y-118701134D01*
X145363752Y-118588882D01*
X145357724Y-118586198D01*
X145357722Y-118586197D01*
X145195319Y-118513891D01*
X145195318Y-118513891D01*
X145189288Y-118511206D01*
X145095887Y-118491353D01*
X145008944Y-118472872D01*
X145008939Y-118472872D01*
X145002487Y-118471500D01*
X144811513Y-118471500D01*
X144805061Y-118472872D01*
X144805056Y-118472872D01*
X144718113Y-118491353D01*
X144624712Y-118511206D01*
X144618682Y-118513891D01*
X144618681Y-118513891D01*
X144456278Y-118586197D01*
X144456276Y-118586198D01*
X144450248Y-118588882D01*
X144295747Y-118701134D01*
X144167960Y-118843056D01*
X144072473Y-119008444D01*
X144070432Y-119014726D01*
X144014287Y-119187520D01*
X143974213Y-119246125D01*
X143908816Y-119273762D01*
X143838860Y-119261655D01*
X143805359Y-119237678D01*
X138937743Y-114370062D01*
X139740493Y-114370062D01*
X139749789Y-114382077D01*
X139800994Y-114417931D01*
X139810489Y-114423414D01*
X140007947Y-114515490D01*
X140018239Y-114519236D01*
X140228688Y-114575625D01*
X140239481Y-114577528D01*
X140456525Y-114596517D01*
X140467475Y-114596517D01*
X140684519Y-114577528D01*
X140695312Y-114575625D01*
X140905761Y-114519236D01*
X140916053Y-114515490D01*
X141113511Y-114423414D01*
X141123006Y-114417931D01*
X141175048Y-114381491D01*
X141183424Y-114371012D01*
X141176356Y-114357566D01*
X140474812Y-113656022D01*
X140460868Y-113648408D01*
X140459035Y-113648539D01*
X140452420Y-113652790D01*
X139746923Y-114358287D01*
X139740493Y-114370062D01*
X138937743Y-114370062D01*
X137857156Y-113289475D01*
X139149483Y-113289475D01*
X139168472Y-113506519D01*
X139170375Y-113517312D01*
X139226764Y-113727761D01*
X139230510Y-113738053D01*
X139322586Y-113935511D01*
X139328069Y-113945006D01*
X139364509Y-113997048D01*
X139374988Y-114005424D01*
X139388434Y-113998356D01*
X140089978Y-113296812D01*
X140096356Y-113285132D01*
X140826408Y-113285132D01*
X140826539Y-113286965D01*
X140830790Y-113293580D01*
X141536287Y-113999077D01*
X141548062Y-114005507D01*
X141560077Y-113996211D01*
X141595931Y-113945006D01*
X141601414Y-113935511D01*
X141693490Y-113738053D01*
X141697236Y-113727761D01*
X141753625Y-113517312D01*
X141755528Y-113506519D01*
X141774517Y-113289475D01*
X141774517Y-113284000D01*
X146768502Y-113284000D01*
X146788457Y-113512087D01*
X146789881Y-113517400D01*
X146789881Y-113517402D01*
X146834820Y-113685113D01*
X146847716Y-113733243D01*
X146850039Y-113738224D01*
X146850039Y-113738225D01*
X146942151Y-113935762D01*
X146942154Y-113935767D01*
X146944477Y-113940749D01*
X146983312Y-113996211D01*
X147035672Y-114070988D01*
X147075802Y-114128300D01*
X147237700Y-114290198D01*
X147242208Y-114293355D01*
X147242211Y-114293357D01*
X147300918Y-114334464D01*
X147425251Y-114421523D01*
X147430233Y-114423846D01*
X147430238Y-114423849D01*
X147626765Y-114515490D01*
X147632757Y-114518284D01*
X147638065Y-114519706D01*
X147638067Y-114519707D01*
X147848598Y-114576119D01*
X147848600Y-114576119D01*
X147853913Y-114577543D01*
X148082000Y-114597498D01*
X148310087Y-114577543D01*
X148315400Y-114576119D01*
X148315402Y-114576119D01*
X148525933Y-114519707D01*
X148525935Y-114519706D01*
X148531243Y-114518284D01*
X148537235Y-114515490D01*
X148733762Y-114423849D01*
X148733767Y-114423846D01*
X148738749Y-114421523D01*
X148863082Y-114334464D01*
X148921789Y-114293357D01*
X148921792Y-114293355D01*
X148926300Y-114290198D01*
X149088198Y-114128300D01*
X149128329Y-114070988D01*
X149180688Y-113996211D01*
X149219523Y-113940749D01*
X149221846Y-113935767D01*
X149221849Y-113935762D01*
X149313961Y-113738225D01*
X149313961Y-113738224D01*
X149316284Y-113733243D01*
X149329181Y-113685113D01*
X149374119Y-113517402D01*
X149374119Y-113517400D01*
X149375543Y-113512087D01*
X149382290Y-113434966D01*
X149798257Y-113434966D01*
X149828565Y-113569446D01*
X149831645Y-113579275D01*
X149911770Y-113776603D01*
X149916413Y-113785794D01*
X150027694Y-113967388D01*
X150033777Y-113975699D01*
X150173213Y-114136667D01*
X150180580Y-114143883D01*
X150344434Y-114279916D01*
X150352881Y-114285831D01*
X150536756Y-114393279D01*
X150546042Y-114397729D01*
X150745001Y-114473703D01*
X150754899Y-114476579D01*
X150858250Y-114497606D01*
X150872299Y-114496410D01*
X150876000Y-114486065D01*
X150876000Y-114485517D01*
X151384000Y-114485517D01*
X151388064Y-114499359D01*
X151401478Y-114501393D01*
X151408184Y-114500534D01*
X151418262Y-114498392D01*
X151622255Y-114437191D01*
X151631842Y-114433433D01*
X151823095Y-114339739D01*
X151831945Y-114334464D01*
X152005328Y-114210792D01*
X152013200Y-114204139D01*
X152164052Y-114053812D01*
X152170730Y-114045965D01*
X152295003Y-113873020D01*
X152300313Y-113864183D01*
X152394670Y-113673267D01*
X152398469Y-113663672D01*
X152460377Y-113459910D01*
X152462555Y-113449837D01*
X152463986Y-113438962D01*
X152461775Y-113424778D01*
X152448617Y-113421000D01*
X151402115Y-113421000D01*
X151386876Y-113425475D01*
X151385671Y-113426865D01*
X151384000Y-113434548D01*
X151384000Y-114485517D01*
X150876000Y-114485517D01*
X150876000Y-113439115D01*
X150871525Y-113423876D01*
X150870135Y-113422671D01*
X150862452Y-113421000D01*
X149813225Y-113421000D01*
X149799694Y-113424973D01*
X149798257Y-113434966D01*
X149382290Y-113434966D01*
X149395498Y-113284000D01*
X149375543Y-113055913D01*
X149338981Y-112919461D01*
X149317707Y-112840067D01*
X149317706Y-112840065D01*
X149316284Y-112834757D01*
X149307270Y-112815427D01*
X149221849Y-112632238D01*
X149221846Y-112632233D01*
X149219523Y-112627251D01*
X149143542Y-112518739D01*
X149091357Y-112444211D01*
X149091355Y-112444208D01*
X149088198Y-112439700D01*
X148926300Y-112277802D01*
X148921792Y-112274645D01*
X148921789Y-112274643D01*
X148795920Y-112186509D01*
X148738749Y-112146477D01*
X148733767Y-112144154D01*
X148733762Y-112144151D01*
X148536225Y-112052039D01*
X148536224Y-112052039D01*
X148531243Y-112049716D01*
X148525935Y-112048294D01*
X148525933Y-112048293D01*
X148315402Y-111991881D01*
X148315400Y-111991881D01*
X148310087Y-111990457D01*
X148082000Y-111970502D01*
X147853913Y-111990457D01*
X147848600Y-111991881D01*
X147848598Y-111991881D01*
X147638067Y-112048293D01*
X147638065Y-112048294D01*
X147632757Y-112049716D01*
X147627776Y-112052039D01*
X147627775Y-112052039D01*
X147430238Y-112144151D01*
X147430233Y-112144154D01*
X147425251Y-112146477D01*
X147368080Y-112186509D01*
X147242211Y-112274643D01*
X147242208Y-112274645D01*
X147237700Y-112277802D01*
X147075802Y-112439700D01*
X147072645Y-112444208D01*
X147072643Y-112444211D01*
X147020458Y-112518739D01*
X146944477Y-112627251D01*
X146942154Y-112632233D01*
X146942151Y-112632238D01*
X146856730Y-112815427D01*
X146847716Y-112834757D01*
X146846294Y-112840065D01*
X146846293Y-112840067D01*
X146825019Y-112919461D01*
X146788457Y-113055913D01*
X146768502Y-113284000D01*
X141774517Y-113284000D01*
X141774517Y-113278525D01*
X141755528Y-113061481D01*
X141753625Y-113050688D01*
X141697236Y-112840239D01*
X141693490Y-112829947D01*
X141601414Y-112632489D01*
X141595931Y-112622994D01*
X141559491Y-112570952D01*
X141549012Y-112562576D01*
X141535566Y-112569644D01*
X140834022Y-113271188D01*
X140826408Y-113285132D01*
X140096356Y-113285132D01*
X140097592Y-113282868D01*
X140097461Y-113281035D01*
X140093210Y-113274420D01*
X139387713Y-112568923D01*
X139375938Y-112562493D01*
X139363923Y-112571789D01*
X139328069Y-112622994D01*
X139322586Y-112632489D01*
X139230510Y-112829947D01*
X139226764Y-112840239D01*
X139170375Y-113050688D01*
X139168472Y-113061481D01*
X139149483Y-113278525D01*
X139149483Y-113289475D01*
X137857156Y-113289475D01*
X136764669Y-112196988D01*
X139740576Y-112196988D01*
X139747644Y-112210434D01*
X140449188Y-112911978D01*
X140463132Y-112919592D01*
X140464965Y-112919461D01*
X140471580Y-112915210D01*
X141177077Y-112209713D01*
X141183507Y-112197938D01*
X141174211Y-112185923D01*
X141123006Y-112150069D01*
X141113511Y-112144586D01*
X140916053Y-112052510D01*
X140905761Y-112048764D01*
X140695312Y-111992375D01*
X140684519Y-111990472D01*
X140467475Y-111971483D01*
X140456525Y-111971483D01*
X140239481Y-111990472D01*
X140228688Y-111992375D01*
X140018239Y-112048764D01*
X140007947Y-112052510D01*
X139810489Y-112144586D01*
X139800994Y-112150069D01*
X139748952Y-112186509D01*
X139740576Y-112196988D01*
X136764669Y-112196988D01*
X135127743Y-110560062D01*
X139740493Y-110560062D01*
X139749789Y-110572077D01*
X139800994Y-110607931D01*
X139810489Y-110613414D01*
X140007947Y-110705490D01*
X140018239Y-110709236D01*
X140228688Y-110765625D01*
X140239481Y-110767528D01*
X140456525Y-110786517D01*
X140467475Y-110786517D01*
X140684519Y-110767528D01*
X140695312Y-110765625D01*
X140905761Y-110709236D01*
X140916053Y-110705490D01*
X141113511Y-110613414D01*
X141123006Y-110607931D01*
X141175048Y-110571491D01*
X141183424Y-110561012D01*
X141176356Y-110547566D01*
X140474812Y-109846022D01*
X140460868Y-109838408D01*
X140459035Y-109838539D01*
X140452420Y-109842790D01*
X139746923Y-110548287D01*
X139740493Y-110560062D01*
X135127743Y-110560062D01*
X134047156Y-109479475D01*
X139149483Y-109479475D01*
X139168472Y-109696519D01*
X139170375Y-109707312D01*
X139226764Y-109917761D01*
X139230510Y-109928053D01*
X139322586Y-110125511D01*
X139328069Y-110135006D01*
X139364509Y-110187048D01*
X139374988Y-110195424D01*
X139388434Y-110188356D01*
X140089978Y-109486812D01*
X140096356Y-109475132D01*
X140826408Y-109475132D01*
X140826539Y-109476965D01*
X140830790Y-109483580D01*
X141536287Y-110189077D01*
X141548062Y-110195507D01*
X141560077Y-110186211D01*
X141595931Y-110135006D01*
X141601414Y-110125511D01*
X141693490Y-109928053D01*
X141697236Y-109917761D01*
X141753625Y-109707312D01*
X141755528Y-109696519D01*
X141774517Y-109479475D01*
X141774517Y-109474000D01*
X146768502Y-109474000D01*
X146788457Y-109702087D01*
X146789881Y-109707400D01*
X146789881Y-109707402D01*
X146842225Y-109902749D01*
X146847716Y-109923243D01*
X146850039Y-109928224D01*
X146850039Y-109928225D01*
X146942151Y-110125762D01*
X146942154Y-110125767D01*
X146944477Y-110130749D01*
X146983312Y-110186211D01*
X147035672Y-110260988D01*
X147075802Y-110318300D01*
X147237700Y-110480198D01*
X147242208Y-110483355D01*
X147242211Y-110483357D01*
X147320389Y-110538098D01*
X147425251Y-110611523D01*
X147430233Y-110613846D01*
X147430238Y-110613849D01*
X147626765Y-110705490D01*
X147632757Y-110708284D01*
X147638065Y-110709706D01*
X147638067Y-110709707D01*
X147848598Y-110766119D01*
X147848600Y-110766119D01*
X147853913Y-110767543D01*
X148082000Y-110787498D01*
X148310087Y-110767543D01*
X148315400Y-110766119D01*
X148315402Y-110766119D01*
X148525933Y-110709707D01*
X148525935Y-110709706D01*
X148531243Y-110708284D01*
X148537235Y-110705490D01*
X148733762Y-110613849D01*
X148733767Y-110613846D01*
X148738749Y-110611523D01*
X148843611Y-110538098D01*
X148921789Y-110483357D01*
X148921792Y-110483355D01*
X148926300Y-110480198D01*
X149088198Y-110318300D01*
X149128329Y-110260988D01*
X149180688Y-110186211D01*
X149219523Y-110130749D01*
X149221846Y-110125767D01*
X149221849Y-110125762D01*
X149313961Y-109928225D01*
X149313961Y-109928224D01*
X149316284Y-109923243D01*
X149321776Y-109902749D01*
X149374119Y-109707402D01*
X149374119Y-109707400D01*
X149375543Y-109702087D01*
X149395498Y-109474000D01*
X149375543Y-109245913D01*
X149370359Y-109226565D01*
X149317707Y-109030067D01*
X149317706Y-109030065D01*
X149316284Y-109024757D01*
X149307270Y-109005427D01*
X149221849Y-108822238D01*
X149221846Y-108822233D01*
X149219523Y-108817251D01*
X149129562Y-108688774D01*
X149091357Y-108634211D01*
X149091355Y-108634208D01*
X149088198Y-108629700D01*
X148926300Y-108467802D01*
X148921792Y-108464645D01*
X148921789Y-108464643D01*
X148795920Y-108376509D01*
X148738749Y-108336477D01*
X148733767Y-108334154D01*
X148733762Y-108334151D01*
X148536225Y-108242039D01*
X148536224Y-108242039D01*
X148531243Y-108239716D01*
X148525935Y-108238294D01*
X148525933Y-108238293D01*
X148315402Y-108181881D01*
X148315400Y-108181881D01*
X148310087Y-108180457D01*
X148082000Y-108160502D01*
X147853913Y-108180457D01*
X147848600Y-108181881D01*
X147848598Y-108181881D01*
X147638067Y-108238293D01*
X147638065Y-108238294D01*
X147632757Y-108239716D01*
X147627776Y-108242039D01*
X147627775Y-108242039D01*
X147430238Y-108334151D01*
X147430233Y-108334154D01*
X147425251Y-108336477D01*
X147368080Y-108376509D01*
X147242211Y-108464643D01*
X147242208Y-108464645D01*
X147237700Y-108467802D01*
X147075802Y-108629700D01*
X147072645Y-108634208D01*
X147072643Y-108634211D01*
X147034438Y-108688774D01*
X146944477Y-108817251D01*
X146942154Y-108822233D01*
X146942151Y-108822238D01*
X146856730Y-109005427D01*
X146847716Y-109024757D01*
X146846294Y-109030065D01*
X146846293Y-109030067D01*
X146793641Y-109226565D01*
X146788457Y-109245913D01*
X146768502Y-109474000D01*
X141774517Y-109474000D01*
X141774517Y-109468525D01*
X141755528Y-109251481D01*
X141753625Y-109240688D01*
X141697236Y-109030239D01*
X141693490Y-109019947D01*
X141601414Y-108822489D01*
X141595931Y-108812994D01*
X141559491Y-108760952D01*
X141549012Y-108752576D01*
X141535566Y-108759644D01*
X140834022Y-109461188D01*
X140826408Y-109475132D01*
X140096356Y-109475132D01*
X140097592Y-109472868D01*
X140097461Y-109471035D01*
X140093210Y-109464420D01*
X139387713Y-108758923D01*
X139375938Y-108752493D01*
X139363923Y-108761789D01*
X139328069Y-108812994D01*
X139322586Y-108822489D01*
X139230510Y-109019947D01*
X139226764Y-109030239D01*
X139170375Y-109240688D01*
X139168472Y-109251481D01*
X139149483Y-109468525D01*
X139149483Y-109479475D01*
X134047156Y-109479475D01*
X133635125Y-109067444D01*
X133604387Y-109017285D01*
X133597971Y-108997537D01*
X133549527Y-108848444D01*
X133521000Y-108799033D01*
X133494177Y-108752576D01*
X133454040Y-108683056D01*
X133326253Y-108541134D01*
X133171752Y-108428882D01*
X133165724Y-108426198D01*
X133165722Y-108426197D01*
X133077657Y-108386988D01*
X139740576Y-108386988D01*
X139747644Y-108400434D01*
X140449188Y-109101978D01*
X140463132Y-109109592D01*
X140464965Y-109109461D01*
X140471580Y-109105210D01*
X141177077Y-108399713D01*
X141183507Y-108387938D01*
X141174211Y-108375923D01*
X141123006Y-108340069D01*
X141113511Y-108334586D01*
X140916053Y-108242510D01*
X140905761Y-108238764D01*
X140695312Y-108182375D01*
X140684519Y-108180472D01*
X140467475Y-108161483D01*
X140456525Y-108161483D01*
X140239481Y-108180472D01*
X140228688Y-108182375D01*
X140018239Y-108238764D01*
X140007947Y-108242510D01*
X139810489Y-108334586D01*
X139800994Y-108340069D01*
X139748952Y-108376509D01*
X139740576Y-108386988D01*
X133077657Y-108386988D01*
X133003319Y-108353891D01*
X133003318Y-108353891D01*
X132997288Y-108351206D01*
X132873962Y-108324992D01*
X132816944Y-108312872D01*
X132816939Y-108312872D01*
X132810487Y-108311500D01*
X132619513Y-108311500D01*
X132613061Y-108312872D01*
X132613056Y-108312872D01*
X132556038Y-108324992D01*
X132432712Y-108351206D01*
X132426682Y-108353891D01*
X132426681Y-108353891D01*
X132264278Y-108426197D01*
X132264276Y-108426198D01*
X132258248Y-108428882D01*
X132103747Y-108541134D01*
X131975960Y-108683056D01*
X131935823Y-108752576D01*
X131909001Y-108799033D01*
X131880473Y-108848444D01*
X131821458Y-109030072D01*
X131820768Y-109036633D01*
X131820768Y-109036635D01*
X131803564Y-109200327D01*
X131801496Y-109220000D01*
X125371805Y-109220000D01*
X125369367Y-108966040D01*
X125369420Y-108960996D01*
X125371526Y-108892088D01*
X125394089Y-108153590D01*
X125399289Y-107983403D01*
X125399545Y-107978352D01*
X125468620Y-107002760D01*
X125469078Y-106997723D01*
X125577252Y-106025669D01*
X125577912Y-106020655D01*
X125725010Y-105053727D01*
X125725871Y-105048743D01*
X125761596Y-104864095D01*
X139818001Y-104864095D01*
X139818338Y-104870614D01*
X139828257Y-104966206D01*
X139831149Y-104979600D01*
X139882588Y-105133784D01*
X139888761Y-105146962D01*
X139974063Y-105284807D01*
X139983099Y-105296208D01*
X140097829Y-105410739D01*
X140109240Y-105419751D01*
X140247243Y-105504816D01*
X140260424Y-105510963D01*
X140414710Y-105562138D01*
X140428086Y-105565005D01*
X140522438Y-105574672D01*
X140528854Y-105575000D01*
X141716385Y-105575000D01*
X141731624Y-105570525D01*
X141732829Y-105569135D01*
X141734500Y-105561452D01*
X141734500Y-105556884D01*
X142242500Y-105556884D01*
X142246975Y-105572123D01*
X142248365Y-105573328D01*
X142256048Y-105574999D01*
X143448095Y-105574999D01*
X143454614Y-105574662D01*
X143550206Y-105564743D01*
X143563600Y-105561851D01*
X143717784Y-105510412D01*
X143730962Y-105504239D01*
X143868807Y-105418937D01*
X143880208Y-105409901D01*
X143994739Y-105295171D01*
X144003751Y-105283760D01*
X144088816Y-105145757D01*
X144094963Y-105132576D01*
X144146138Y-104978290D01*
X144149005Y-104964914D01*
X144158672Y-104870562D01*
X144158834Y-104867400D01*
X144892500Y-104867400D01*
X144892837Y-104870646D01*
X144892837Y-104870650D01*
X144902752Y-104966206D01*
X144903474Y-104973166D01*
X144905655Y-104979702D01*
X144905655Y-104979704D01*
X144949292Y-105110500D01*
X144959450Y-105140946D01*
X145052522Y-105291348D01*
X145177697Y-105416305D01*
X145183927Y-105420145D01*
X145183928Y-105420146D01*
X145321288Y-105504816D01*
X145328262Y-105509115D01*
X145408005Y-105535564D01*
X145489611Y-105562632D01*
X145489613Y-105562632D01*
X145496139Y-105564797D01*
X145502975Y-105565497D01*
X145502978Y-105565498D01*
X145546031Y-105569909D01*
X145600600Y-105575500D01*
X148526400Y-105575500D01*
X148529646Y-105575163D01*
X148529650Y-105575163D01*
X148625308Y-105565238D01*
X148625312Y-105565237D01*
X148632166Y-105564526D01*
X148638702Y-105562345D01*
X148638704Y-105562345D01*
X148770806Y-105518272D01*
X148799946Y-105508550D01*
X148950348Y-105415478D01*
X149075305Y-105290303D01*
X149096995Y-105255116D01*
X149164275Y-105145968D01*
X149164276Y-105145966D01*
X149168115Y-105139738D01*
X149177372Y-105111830D01*
X149217803Y-105053472D01*
X149283367Y-105026236D01*
X149296964Y-105025500D01*
X149483629Y-105025500D01*
X149551750Y-105045502D01*
X149572724Y-105062405D01*
X149734595Y-105224276D01*
X149768621Y-105286588D01*
X149771500Y-105313371D01*
X149771500Y-106445134D01*
X149778255Y-106507316D01*
X149829385Y-106643705D01*
X149916739Y-106760261D01*
X150033295Y-106847615D01*
X150041704Y-106850767D01*
X150041705Y-106850768D01*
X150150451Y-106891535D01*
X150207216Y-106934176D01*
X150231916Y-107000738D01*
X150216709Y-107070087D01*
X150197316Y-107096568D01*
X150070629Y-107229138D01*
X149944743Y-107413680D01*
X149929003Y-107447590D01*
X149872725Y-107568831D01*
X149850688Y-107616305D01*
X149790989Y-107831570D01*
X149767251Y-108053695D01*
X149767548Y-108058848D01*
X149767548Y-108058851D01*
X149778111Y-108242039D01*
X149780110Y-108276715D01*
X149781247Y-108281761D01*
X149781248Y-108281767D01*
X149800241Y-108366042D01*
X149829222Y-108494639D01*
X149865914Y-108585000D01*
X149905730Y-108683056D01*
X149913266Y-108701616D01*
X150029987Y-108892088D01*
X150176250Y-109060938D01*
X150348126Y-109203632D01*
X150395199Y-109231139D01*
X150421445Y-109246476D01*
X150470169Y-109298114D01*
X150483240Y-109367897D01*
X150456509Y-109433669D01*
X150416055Y-109467027D01*
X150408356Y-109471035D01*
X150403607Y-109473507D01*
X150399474Y-109476610D01*
X150399471Y-109476612D01*
X150229100Y-109604530D01*
X150224965Y-109607635D01*
X150070629Y-109769138D01*
X150067715Y-109773410D01*
X150067714Y-109773411D01*
X150018182Y-109846022D01*
X149944743Y-109953680D01*
X149929003Y-109987590D01*
X149857278Y-110142109D01*
X149850688Y-110156305D01*
X149790989Y-110371570D01*
X149767251Y-110593695D01*
X149767548Y-110598848D01*
X149767548Y-110598851D01*
X149776132Y-110747721D01*
X149780110Y-110816715D01*
X149781247Y-110821761D01*
X149781248Y-110821767D01*
X149781294Y-110821969D01*
X149829222Y-111034639D01*
X149913266Y-111241616D01*
X149915965Y-111246020D01*
X150011808Y-111402422D01*
X150029987Y-111432088D01*
X150176250Y-111600938D01*
X150348126Y-111743632D01*
X150376137Y-111760000D01*
X150421955Y-111786774D01*
X150470679Y-111838412D01*
X150483750Y-111908195D01*
X150457019Y-111973967D01*
X150416562Y-112007327D01*
X150408457Y-112011546D01*
X150399738Y-112017036D01*
X150229433Y-112144905D01*
X150221726Y-112151748D01*
X150074590Y-112305717D01*
X150068104Y-112313727D01*
X149948098Y-112489649D01*
X149943000Y-112498623D01*
X149853338Y-112691783D01*
X149849775Y-112701470D01*
X149794389Y-112901183D01*
X149795912Y-112909607D01*
X149808292Y-112913000D01*
X152448344Y-112913000D01*
X152461875Y-112909027D01*
X152463180Y-112899947D01*
X152421214Y-112732875D01*
X152417894Y-112723124D01*
X152332972Y-112527814D01*
X152328105Y-112518739D01*
X152212426Y-112339926D01*
X152206136Y-112331757D01*
X152062806Y-112174240D01*
X152055273Y-112167215D01*
X151888139Y-112035222D01*
X151879556Y-112029520D01*
X151842602Y-112009120D01*
X151792631Y-111958687D01*
X151777859Y-111889245D01*
X151802975Y-111822839D01*
X151830327Y-111796232D01*
X151865506Y-111771139D01*
X152009860Y-111668173D01*
X152023188Y-111654892D01*
X152133036Y-111545427D01*
X152168096Y-111510489D01*
X152173996Y-111502279D01*
X152295435Y-111333277D01*
X152298453Y-111329077D01*
X152308690Y-111308365D01*
X152395136Y-111133453D01*
X152395137Y-111133451D01*
X152397430Y-111128811D01*
X152462370Y-110915069D01*
X152491529Y-110693590D01*
X152493156Y-110627000D01*
X152474852Y-110404361D01*
X152420431Y-110187702D01*
X152331354Y-109982840D01*
X152273852Y-109893955D01*
X152212822Y-109799617D01*
X152212820Y-109799614D01*
X152210014Y-109795277D01*
X152059670Y-109630051D01*
X152055619Y-109626852D01*
X152055615Y-109626848D01*
X151888414Y-109494800D01*
X151888410Y-109494798D01*
X151884359Y-109491598D01*
X151843053Y-109468796D01*
X151793084Y-109418364D01*
X151778312Y-109348921D01*
X151803428Y-109282516D01*
X151830780Y-109255909D01*
X151878403Y-109221940D01*
X152009860Y-109128173D01*
X152032904Y-109105210D01*
X152133036Y-109005427D01*
X152168096Y-108970489D01*
X152173996Y-108962279D01*
X152295435Y-108793277D01*
X152298453Y-108789077D01*
X152308690Y-108768365D01*
X152395136Y-108593453D01*
X152395137Y-108593451D01*
X152397430Y-108588811D01*
X152454299Y-108401635D01*
X152460865Y-108380023D01*
X152460865Y-108380021D01*
X152462370Y-108375069D01*
X152491529Y-108153590D01*
X152493156Y-108087000D01*
X152474852Y-107864361D01*
X152420431Y-107647702D01*
X152331354Y-107442840D01*
X152248651Y-107315000D01*
X152212822Y-107259617D01*
X152212820Y-107259614D01*
X152210014Y-107255277D01*
X152206532Y-107251450D01*
X152062798Y-107093488D01*
X152031746Y-107029642D01*
X152040141Y-106959143D01*
X152085317Y-106904375D01*
X152111761Y-106890706D01*
X152218297Y-106850767D01*
X152226705Y-106847615D01*
X152343261Y-106760261D01*
X152430615Y-106643705D01*
X152481745Y-106507316D01*
X152488500Y-106445134D01*
X152488500Y-104648866D01*
X152481745Y-104586684D01*
X152430615Y-104450295D01*
X152343261Y-104333739D01*
X152226705Y-104246385D01*
X152090316Y-104195255D01*
X152028134Y-104188500D01*
X150896371Y-104188500D01*
X150828250Y-104168498D01*
X150807276Y-104151595D01*
X150433770Y-103778089D01*
X150421384Y-103763677D01*
X150412851Y-103752082D01*
X150412846Y-103752077D01*
X150408508Y-103746182D01*
X150402930Y-103741443D01*
X150402927Y-103741440D01*
X150368232Y-103711965D01*
X150360716Y-103705035D01*
X150355021Y-103699340D01*
X150348880Y-103694482D01*
X150332749Y-103681719D01*
X150329345Y-103678928D01*
X150279297Y-103636409D01*
X150279295Y-103636408D01*
X150273715Y-103631667D01*
X150267199Y-103628339D01*
X150262150Y-103624972D01*
X150257021Y-103621805D01*
X150251284Y-103617266D01*
X150185125Y-103586345D01*
X150181225Y-103584439D01*
X150169040Y-103578217D01*
X150116192Y-103551231D01*
X150109084Y-103549492D01*
X150103441Y-103547393D01*
X150097678Y-103545476D01*
X150091050Y-103542378D01*
X150019583Y-103527513D01*
X150015299Y-103526543D01*
X149944390Y-103509192D01*
X149938788Y-103508844D01*
X149938785Y-103508844D01*
X149933236Y-103508500D01*
X149933238Y-103508464D01*
X149929245Y-103508225D01*
X149925053Y-103507851D01*
X149917885Y-103506360D01*
X149851675Y-103508151D01*
X149840479Y-103508454D01*
X149837072Y-103508500D01*
X149296857Y-103508500D01*
X149228736Y-103488498D01*
X149182243Y-103434842D01*
X149177334Y-103422378D01*
X149169870Y-103400005D01*
X149169867Y-103399998D01*
X149167550Y-103393054D01*
X149074478Y-103242652D01*
X148949303Y-103117695D01*
X148816207Y-103035653D01*
X148804968Y-103028725D01*
X148804966Y-103028724D01*
X148798738Y-103024885D01*
X148695118Y-102990516D01*
X148637389Y-102971368D01*
X148637387Y-102971368D01*
X148630861Y-102969203D01*
X148624025Y-102968503D01*
X148624022Y-102968502D01*
X148580969Y-102964091D01*
X148526400Y-102958500D01*
X145600600Y-102958500D01*
X145597354Y-102958837D01*
X145597350Y-102958837D01*
X145501692Y-102968762D01*
X145501688Y-102968763D01*
X145494834Y-102969474D01*
X145488298Y-102971655D01*
X145488296Y-102971655D01*
X145407320Y-102998671D01*
X145327054Y-103025450D01*
X145176652Y-103118522D01*
X145051695Y-103243697D01*
X145047855Y-103249927D01*
X145047854Y-103249928D01*
X144967480Y-103380319D01*
X144958885Y-103394262D01*
X144946879Y-103430459D01*
X144910252Y-103540888D01*
X144903203Y-103562139D01*
X144902503Y-103568975D01*
X144902502Y-103568978D01*
X144900720Y-103586371D01*
X144892500Y-103666600D01*
X144892500Y-104867400D01*
X144158834Y-104867400D01*
X144159000Y-104864146D01*
X144159000Y-104539115D01*
X144154525Y-104523876D01*
X144153135Y-104522671D01*
X144145452Y-104521000D01*
X142260615Y-104521000D01*
X142245376Y-104525475D01*
X142244171Y-104526865D01*
X142242500Y-104534548D01*
X142242500Y-105556884D01*
X141734500Y-105556884D01*
X141734500Y-104539115D01*
X141730025Y-104523876D01*
X141728635Y-104522671D01*
X141720952Y-104521000D01*
X139836116Y-104521000D01*
X139820877Y-104525475D01*
X139819672Y-104526865D01*
X139818001Y-104534548D01*
X139818001Y-104864095D01*
X125761596Y-104864095D01*
X125911652Y-104088508D01*
X125912712Y-104083563D01*
X125914102Y-104077662D01*
X125933593Y-103994885D01*
X139818000Y-103994885D01*
X139822475Y-104010124D01*
X139823865Y-104011329D01*
X139831548Y-104013000D01*
X141716385Y-104013000D01*
X141731624Y-104008525D01*
X141732829Y-104007135D01*
X141734500Y-103999452D01*
X141734500Y-103994885D01*
X142242500Y-103994885D01*
X142246975Y-104010124D01*
X142248365Y-104011329D01*
X142256048Y-104013000D01*
X144140884Y-104013000D01*
X144156123Y-104008525D01*
X144157328Y-104007135D01*
X144158999Y-103999452D01*
X144158999Y-103669905D01*
X144158662Y-103663386D01*
X144148743Y-103567794D01*
X144145851Y-103554400D01*
X144094412Y-103400216D01*
X144088239Y-103387038D01*
X144002937Y-103249193D01*
X143993901Y-103237792D01*
X143879171Y-103123261D01*
X143867760Y-103114249D01*
X143729757Y-103029184D01*
X143716576Y-103023037D01*
X143562290Y-102971862D01*
X143548914Y-102968995D01*
X143454562Y-102959328D01*
X143448145Y-102959000D01*
X142260615Y-102959000D01*
X142245376Y-102963475D01*
X142244171Y-102964865D01*
X142242500Y-102972548D01*
X142242500Y-103994885D01*
X141734500Y-103994885D01*
X141734500Y-102977116D01*
X141730025Y-102961877D01*
X141728635Y-102960672D01*
X141720952Y-102959001D01*
X140528905Y-102959001D01*
X140522386Y-102959338D01*
X140426794Y-102969257D01*
X140413400Y-102972149D01*
X140259216Y-103023588D01*
X140246038Y-103029761D01*
X140108193Y-103115063D01*
X140096792Y-103124099D01*
X139982261Y-103238829D01*
X139973249Y-103250240D01*
X139888184Y-103388243D01*
X139882037Y-103401424D01*
X139830862Y-103555710D01*
X139827995Y-103569086D01*
X139818328Y-103663438D01*
X139818000Y-103669855D01*
X139818000Y-103994885D01*
X125933593Y-103994885D01*
X126136882Y-103131546D01*
X126138140Y-103126647D01*
X126184790Y-102959000D01*
X126400334Y-102184400D01*
X126401784Y-102179565D01*
X126404176Y-102172139D01*
X126588421Y-101600000D01*
X137135496Y-101600000D01*
X137136186Y-101606565D01*
X137152907Y-101765653D01*
X137155458Y-101789928D01*
X137214473Y-101971556D01*
X137217776Y-101977278D01*
X137217777Y-101977279D01*
X137251686Y-102036010D01*
X137309960Y-102136944D01*
X137314378Y-102141851D01*
X137314379Y-102141852D01*
X137426009Y-102265830D01*
X137437747Y-102278866D01*
X137592248Y-102391118D01*
X137598276Y-102393802D01*
X137598278Y-102393803D01*
X137753750Y-102463023D01*
X137766712Y-102468794D01*
X137847801Y-102486030D01*
X137947056Y-102507128D01*
X137947061Y-102507128D01*
X137953513Y-102508500D01*
X138144487Y-102508500D01*
X138150939Y-102507128D01*
X138150944Y-102507128D01*
X138250199Y-102486030D01*
X138331288Y-102468794D01*
X138344250Y-102463023D01*
X138499722Y-102393803D01*
X138499724Y-102393802D01*
X138505752Y-102391118D01*
X138660253Y-102278866D01*
X138671991Y-102265830D01*
X138783621Y-102141852D01*
X138783622Y-102141851D01*
X138788040Y-102136944D01*
X138846314Y-102036010D01*
X138880223Y-101977279D01*
X138880224Y-101977278D01*
X138883527Y-101971556D01*
X138938387Y-101802714D01*
X138969125Y-101752556D01*
X139977276Y-100744405D01*
X140039588Y-100710379D01*
X140066371Y-100707500D01*
X149493629Y-100707500D01*
X149561750Y-100727502D01*
X149582724Y-100744405D01*
X152747595Y-103909276D01*
X152781621Y-103971588D01*
X152784500Y-103998371D01*
X152784500Y-111258470D01*
X152783067Y-111277420D01*
X152779801Y-111298889D01*
X152780394Y-111306181D01*
X152780394Y-111306184D01*
X152784085Y-111351558D01*
X152784500Y-111361773D01*
X152784500Y-111369833D01*
X152784925Y-111373477D01*
X152787789Y-111398047D01*
X152788222Y-111402422D01*
X152790953Y-111435990D01*
X152794140Y-111475177D01*
X152796396Y-111482141D01*
X152797587Y-111488100D01*
X152798971Y-111493955D01*
X152799818Y-111501221D01*
X152824735Y-111569867D01*
X152826152Y-111573995D01*
X152848649Y-111643439D01*
X152852445Y-111649694D01*
X152854951Y-111655168D01*
X152857670Y-111660598D01*
X152860167Y-111667477D01*
X152864180Y-111673597D01*
X152864180Y-111673598D01*
X152900186Y-111728516D01*
X152902523Y-111732220D01*
X152940405Y-111794647D01*
X152944121Y-111798855D01*
X152944122Y-111798856D01*
X152947803Y-111803024D01*
X152947776Y-111803048D01*
X152950429Y-111806040D01*
X152953132Y-111809273D01*
X152957144Y-111815392D01*
X152962456Y-111820424D01*
X153013383Y-111868668D01*
X153015825Y-111871046D01*
X159108690Y-117963911D01*
X159121076Y-117978323D01*
X159129609Y-117989918D01*
X159129614Y-117989923D01*
X159133952Y-117995818D01*
X159139530Y-118000557D01*
X159139533Y-118000560D01*
X159174228Y-118030035D01*
X159181744Y-118036965D01*
X159187440Y-118042661D01*
X159190301Y-118044924D01*
X159190306Y-118044929D01*
X159209726Y-118060293D01*
X159213127Y-118063082D01*
X159268745Y-118110333D01*
X159275258Y-118113659D01*
X159280297Y-118117020D01*
X159285439Y-118120196D01*
X159291176Y-118124734D01*
X159357335Y-118155655D01*
X159361229Y-118157558D01*
X159426268Y-118190769D01*
X159433377Y-118192508D01*
X159439011Y-118194604D01*
X159444781Y-118196523D01*
X159451410Y-118199622D01*
X159458573Y-118201112D01*
X159458576Y-118201113D01*
X159509290Y-118211661D01*
X159522895Y-118214491D01*
X159527161Y-118215457D01*
X159598070Y-118232808D01*
X159603672Y-118233156D01*
X159603675Y-118233156D01*
X159609224Y-118233500D01*
X159609222Y-118233535D01*
X159613194Y-118233775D01*
X159617415Y-118234152D01*
X159624575Y-118235641D01*
X159702002Y-118233546D01*
X159705410Y-118233500D01*
X159926246Y-118233500D01*
X159961398Y-118238503D01*
X160099989Y-118278767D01*
X160099993Y-118278768D01*
X160106169Y-118280562D01*
X160112574Y-118281066D01*
X160112579Y-118281067D01*
X160141042Y-118283307D01*
X160141050Y-118283307D01*
X160143498Y-118283500D01*
X162026502Y-118283500D01*
X162028950Y-118283307D01*
X162028958Y-118283307D01*
X162057421Y-118281067D01*
X162057426Y-118281066D01*
X162063831Y-118280562D01*
X162208601Y-118238503D01*
X162215988Y-118236357D01*
X162215990Y-118236356D01*
X162223601Y-118234145D01*
X162302575Y-118187440D01*
X162359980Y-118153491D01*
X162359983Y-118153489D01*
X162366807Y-118149453D01*
X162484453Y-118031807D01*
X162488489Y-118024983D01*
X162488491Y-118024980D01*
X162565108Y-117895427D01*
X162569145Y-117888601D01*
X162615562Y-117728831D01*
X162618500Y-117691502D01*
X162618500Y-117258498D01*
X162615562Y-117221169D01*
X162569145Y-117061399D01*
X162484453Y-116918193D01*
X162481771Y-116915511D01*
X162456498Y-116851139D01*
X162470400Y-116781516D01*
X162480572Y-116765688D01*
X162484453Y-116761807D01*
X162569145Y-116618601D01*
X162615562Y-116458831D01*
X162618500Y-116421502D01*
X162618500Y-115988498D01*
X162615562Y-115951169D01*
X162569145Y-115791399D01*
X162484453Y-115648193D01*
X162481771Y-115645511D01*
X162456498Y-115581139D01*
X162470400Y-115511516D01*
X162480572Y-115495688D01*
X162484453Y-115491807D01*
X162569145Y-115348601D01*
X162615562Y-115188831D01*
X162618500Y-115151502D01*
X162618500Y-114718498D01*
X162615562Y-114681169D01*
X162569145Y-114521399D01*
X162484453Y-114378193D01*
X162481771Y-114375511D01*
X162456498Y-114311139D01*
X162470400Y-114241516D01*
X162480572Y-114225688D01*
X162484453Y-114221807D01*
X162569145Y-114078601D01*
X162615562Y-113918831D01*
X162618500Y-113881502D01*
X162618500Y-113448498D01*
X162617762Y-113439115D01*
X162616067Y-113417579D01*
X162616066Y-113417574D01*
X162615562Y-113411169D01*
X162569145Y-113251399D01*
X162484453Y-113108193D01*
X162481771Y-113105511D01*
X162456498Y-113041139D01*
X162470400Y-112971516D01*
X162480572Y-112955688D01*
X162484453Y-112951807D01*
X162569145Y-112808601D01*
X162615562Y-112648831D01*
X162616849Y-112632489D01*
X162618307Y-112613958D01*
X162618307Y-112613950D01*
X162618500Y-112611502D01*
X162618500Y-112178498D01*
X162616395Y-112151748D01*
X162616067Y-112147579D01*
X162616066Y-112147574D01*
X162615562Y-112141169D01*
X162613768Y-112134993D01*
X162613767Y-112134989D01*
X162587522Y-112044652D01*
X162587725Y-111973656D01*
X162626279Y-111914040D01*
X162690944Y-111884732D01*
X162708519Y-111883500D01*
X163160413Y-111883500D01*
X163234472Y-111907563D01*
X163240902Y-111912235D01*
X163240909Y-111912239D01*
X163246248Y-111916118D01*
X163252276Y-111918802D01*
X163252278Y-111918803D01*
X163414681Y-111991109D01*
X163420712Y-111993794D01*
X163492815Y-112009120D01*
X163601056Y-112032128D01*
X163601061Y-112032128D01*
X163607513Y-112033500D01*
X163798487Y-112033500D01*
X163804939Y-112032128D01*
X163804944Y-112032128D01*
X163913185Y-112009120D01*
X163985288Y-111993794D01*
X163991319Y-111991109D01*
X164153722Y-111918803D01*
X164153724Y-111918802D01*
X164159752Y-111916118D01*
X164165097Y-111912235D01*
X164257607Y-111845022D01*
X164314253Y-111803866D01*
X164319318Y-111798241D01*
X164437621Y-111666852D01*
X164437622Y-111666851D01*
X164442040Y-111661944D01*
X164537527Y-111496556D01*
X164596542Y-111314928D01*
X164603785Y-111246020D01*
X164615814Y-111131565D01*
X164616504Y-111125000D01*
X164596542Y-110935072D01*
X164537527Y-110753444D01*
X164512004Y-110709236D01*
X164462588Y-110623646D01*
X164442040Y-110588056D01*
X164427653Y-110572077D01*
X164318675Y-110451045D01*
X164318674Y-110451044D01*
X164314253Y-110446134D01*
X164204647Y-110366500D01*
X164165094Y-110337763D01*
X164165093Y-110337762D01*
X164159752Y-110333882D01*
X164153724Y-110331198D01*
X164153722Y-110331197D01*
X163991319Y-110258891D01*
X163991318Y-110258891D01*
X163985288Y-110256206D01*
X163891888Y-110236353D01*
X163804944Y-110217872D01*
X163804939Y-110217872D01*
X163798487Y-110216500D01*
X163607513Y-110216500D01*
X163601061Y-110217872D01*
X163601056Y-110217872D01*
X163514112Y-110236353D01*
X163420712Y-110256206D01*
X163414682Y-110258891D01*
X163414681Y-110258891D01*
X163252278Y-110331197D01*
X163252276Y-110331198D01*
X163246248Y-110333882D01*
X163240909Y-110337761D01*
X163240902Y-110337765D01*
X163234472Y-110342437D01*
X163160413Y-110366500D01*
X162708519Y-110366500D01*
X162640398Y-110346498D01*
X162593905Y-110292842D01*
X162583801Y-110222568D01*
X162587522Y-110205348D01*
X162613767Y-110115011D01*
X162613768Y-110115007D01*
X162615562Y-110108831D01*
X162617051Y-110089919D01*
X162618307Y-110073958D01*
X162618307Y-110073950D01*
X162618500Y-110071502D01*
X162618500Y-109638498D01*
X162618136Y-109633870D01*
X162616067Y-109607579D01*
X162616066Y-109607574D01*
X162615562Y-109601169D01*
X162578473Y-109473507D01*
X162571357Y-109449012D01*
X162571356Y-109449010D01*
X162569145Y-109441399D01*
X162484453Y-109298193D01*
X162481771Y-109295511D01*
X162456498Y-109231139D01*
X162470400Y-109161516D01*
X162480572Y-109145688D01*
X162484453Y-109141807D01*
X162569145Y-108998601D01*
X162576253Y-108974137D01*
X162596777Y-108903489D01*
X162615562Y-108838831D01*
X162616849Y-108822489D01*
X162618307Y-108803958D01*
X162618307Y-108803950D01*
X162618500Y-108801502D01*
X162618500Y-108368498D01*
X162618307Y-108366042D01*
X162616067Y-108337579D01*
X162616066Y-108337574D01*
X162615562Y-108331169D01*
X162581360Y-108213444D01*
X162571357Y-108179012D01*
X162571356Y-108179010D01*
X162569145Y-108171399D01*
X162484453Y-108028193D01*
X162481771Y-108025511D01*
X162456498Y-107961139D01*
X162470400Y-107891516D01*
X162480572Y-107875688D01*
X162484453Y-107871807D01*
X162569145Y-107728601D01*
X162579698Y-107692279D01*
X162600319Y-107621297D01*
X162615562Y-107568831D01*
X162618500Y-107531502D01*
X162618500Y-107098498D01*
X162618106Y-107093488D01*
X162616067Y-107067579D01*
X162616066Y-107067574D01*
X162615562Y-107061169D01*
X162581360Y-106943444D01*
X162571357Y-106909012D01*
X162571356Y-106909010D01*
X162569145Y-106901399D01*
X162496200Y-106778056D01*
X162488493Y-106765024D01*
X162488492Y-106765023D01*
X162484453Y-106758193D01*
X162481513Y-106755253D01*
X162456180Y-106690734D01*
X162470079Y-106621111D01*
X162482126Y-106602364D01*
X162488090Y-106594676D01*
X162564648Y-106465221D01*
X162570893Y-106450790D01*
X162609939Y-106316395D01*
X162609899Y-106302294D01*
X162602630Y-106299000D01*
X159573122Y-106299000D01*
X159559591Y-106302973D01*
X159558456Y-106310870D01*
X159582999Y-106395346D01*
X159582797Y-106466342D01*
X159544243Y-106525959D01*
X159479578Y-106555268D01*
X159462002Y-106556500D01*
X159292587Y-106556500D01*
X159218528Y-106532437D01*
X159212098Y-106527765D01*
X159212091Y-106527761D01*
X159206752Y-106523882D01*
X159200724Y-106521198D01*
X159200722Y-106521197D01*
X159038319Y-106448891D01*
X159038318Y-106448891D01*
X159032288Y-106446206D01*
X158938887Y-106426353D01*
X158851944Y-106407872D01*
X158851939Y-106407872D01*
X158845487Y-106406500D01*
X158654513Y-106406500D01*
X158648061Y-106407872D01*
X158648056Y-106407872D01*
X158561113Y-106426353D01*
X158467712Y-106446206D01*
X158461682Y-106448891D01*
X158461681Y-106448891D01*
X158299278Y-106521197D01*
X158299276Y-106521198D01*
X158293248Y-106523882D01*
X158287907Y-106527762D01*
X158287906Y-106527763D01*
X158281473Y-106532437D01*
X158138747Y-106636134D01*
X158134326Y-106641044D01*
X158134325Y-106641045D01*
X158022138Y-106765642D01*
X158010960Y-106778056D01*
X158007659Y-106783774D01*
X157938030Y-106904375D01*
X157915473Y-106943444D01*
X157856458Y-107125072D01*
X157836496Y-107315000D01*
X157837186Y-107321565D01*
X157850432Y-107447590D01*
X157856458Y-107504928D01*
X157915473Y-107686556D01*
X158010960Y-107851944D01*
X158023338Y-107865691D01*
X158054054Y-107929697D01*
X158045290Y-108000150D01*
X158023339Y-108034307D01*
X158010960Y-108048056D01*
X157915473Y-108213444D01*
X157856458Y-108395072D01*
X157855768Y-108401633D01*
X157855768Y-108401635D01*
X157849146Y-108464643D01*
X157836496Y-108585000D01*
X157837186Y-108591565D01*
X157854852Y-108759644D01*
X157856458Y-108774928D01*
X157915473Y-108956556D01*
X157918776Y-108962278D01*
X157918777Y-108962279D01*
X157923517Y-108970489D01*
X158010960Y-109121944D01*
X158015378Y-109126851D01*
X158015379Y-109126852D01*
X158134325Y-109258955D01*
X158138747Y-109263866D01*
X158184662Y-109297225D01*
X158287904Y-109372235D01*
X158293248Y-109376118D01*
X158299276Y-109378802D01*
X158299278Y-109378803D01*
X158439872Y-109441399D01*
X158467712Y-109453794D01*
X158548824Y-109471035D01*
X158648056Y-109492128D01*
X158648061Y-109492128D01*
X158654513Y-109493500D01*
X158845487Y-109493500D01*
X158851939Y-109492128D01*
X158851944Y-109492128D01*
X158951176Y-109471035D01*
X159032288Y-109453794D01*
X159060128Y-109441399D01*
X159200722Y-109378803D01*
X159200724Y-109378802D01*
X159206752Y-109376118D01*
X159212091Y-109372239D01*
X159212098Y-109372235D01*
X159218528Y-109367563D01*
X159292587Y-109343500D01*
X159461481Y-109343500D01*
X159529602Y-109363502D01*
X159576095Y-109417158D01*
X159586199Y-109487432D01*
X159582478Y-109504652D01*
X159556233Y-109594989D01*
X159556232Y-109594993D01*
X159554438Y-109601169D01*
X159553934Y-109607574D01*
X159553933Y-109607579D01*
X159551864Y-109633870D01*
X159551500Y-109638498D01*
X159551500Y-110071502D01*
X159551693Y-110073950D01*
X159551693Y-110073958D01*
X159552950Y-110089919D01*
X159554438Y-110108831D01*
X159600855Y-110268601D01*
X159685547Y-110411807D01*
X159688229Y-110414489D01*
X159713502Y-110478861D01*
X159699600Y-110548484D01*
X159689428Y-110564312D01*
X159685547Y-110568193D01*
X159600855Y-110711399D01*
X159598644Y-110719010D01*
X159598643Y-110719012D01*
X159588640Y-110753444D01*
X159554438Y-110871169D01*
X159551500Y-110908498D01*
X159551500Y-111341502D01*
X159551693Y-111343950D01*
X159551693Y-111343958D01*
X159553730Y-111369833D01*
X159554438Y-111378831D01*
X159571044Y-111435990D01*
X159593748Y-111514137D01*
X159600855Y-111538601D01*
X159685547Y-111681807D01*
X159688229Y-111684489D01*
X159713502Y-111748861D01*
X159699600Y-111818484D01*
X159689428Y-111834312D01*
X159685547Y-111838193D01*
X159600855Y-111981399D01*
X159598644Y-111989010D01*
X159598643Y-111989012D01*
X159586875Y-112029520D01*
X159554438Y-112141169D01*
X159553934Y-112147574D01*
X159553933Y-112147579D01*
X159553605Y-112151748D01*
X159551500Y-112178498D01*
X159551500Y-112611502D01*
X159551693Y-112613950D01*
X159551693Y-112613958D01*
X159553152Y-112632489D01*
X159554438Y-112648831D01*
X159556232Y-112655007D01*
X159556233Y-112655011D01*
X159582478Y-112745348D01*
X159582275Y-112816344D01*
X159543721Y-112875960D01*
X159479056Y-112905268D01*
X159461481Y-112906500D01*
X159216641Y-112906500D01*
X159148520Y-112886498D01*
X159127546Y-112869595D01*
X156436965Y-110179014D01*
X156402939Y-110116702D01*
X156400060Y-110089919D01*
X156400060Y-105773605D01*
X159560061Y-105773605D01*
X159560101Y-105787706D01*
X159567370Y-105791000D01*
X160812885Y-105791000D01*
X160828124Y-105786525D01*
X160829329Y-105785135D01*
X160831000Y-105777452D01*
X160831000Y-105772885D01*
X161339000Y-105772885D01*
X161343475Y-105788124D01*
X161344865Y-105789329D01*
X161352548Y-105791000D01*
X162596878Y-105791000D01*
X162610409Y-105787027D01*
X162611544Y-105779129D01*
X162570893Y-105639210D01*
X162564648Y-105624779D01*
X162488089Y-105495322D01*
X162478449Y-105482896D01*
X162372104Y-105376551D01*
X162359678Y-105366911D01*
X162230221Y-105290352D01*
X162215790Y-105284107D01*
X162069935Y-105241731D01*
X162057333Y-105239430D01*
X162028916Y-105237193D01*
X162023986Y-105237000D01*
X161357115Y-105237000D01*
X161341876Y-105241475D01*
X161340671Y-105242865D01*
X161339000Y-105250548D01*
X161339000Y-105772885D01*
X160831000Y-105772885D01*
X160831000Y-105255116D01*
X160826525Y-105239877D01*
X160825135Y-105238672D01*
X160817452Y-105237001D01*
X160146017Y-105237001D01*
X160141080Y-105237195D01*
X160112664Y-105239430D01*
X160100069Y-105241730D01*
X159954210Y-105284107D01*
X159939779Y-105290352D01*
X159810322Y-105366911D01*
X159797896Y-105376551D01*
X159691551Y-105482896D01*
X159681911Y-105495322D01*
X159605352Y-105624779D01*
X159599107Y-105639210D01*
X159560061Y-105773605D01*
X156400060Y-105773605D01*
X156400060Y-104283003D01*
X162416579Y-104283003D01*
X162417363Y-104292977D01*
X162419662Y-104305564D01*
X162460981Y-104447783D01*
X162467230Y-104462222D01*
X162541854Y-104588405D01*
X162551501Y-104600841D01*
X162655159Y-104704499D01*
X162667595Y-104714146D01*
X162793778Y-104788770D01*
X162808217Y-104795019D01*
X162921605Y-104827961D01*
X162935705Y-104827921D01*
X162939000Y-104820651D01*
X162939000Y-104285115D01*
X162934525Y-104269876D01*
X162933135Y-104268671D01*
X162925452Y-104267000D01*
X162433434Y-104267000D01*
X162418639Y-104271344D01*
X162416579Y-104283003D01*
X156400060Y-104283003D01*
X156400060Y-102363769D01*
X157451500Y-102363769D01*
X157451501Y-103376230D01*
X157462384Y-103481129D01*
X157464563Y-103487660D01*
X157464564Y-103487665D01*
X157510373Y-103624972D01*
X157517898Y-103647526D01*
X157610203Y-103796689D01*
X157734347Y-103920617D01*
X157883671Y-104012661D01*
X157890619Y-104014966D01*
X157890620Y-104014966D01*
X158043634Y-104065719D01*
X158043636Y-104065719D01*
X158050165Y-104067885D01*
X158153769Y-104078500D01*
X158445234Y-104078500D01*
X158741230Y-104078499D01*
X158846129Y-104067616D01*
X158852660Y-104065437D01*
X158852665Y-104065436D01*
X159005578Y-104014420D01*
X159012526Y-104012102D01*
X159161689Y-103919797D01*
X159285617Y-103795653D01*
X159287614Y-103792413D01*
X159344352Y-103752186D01*
X159415275Y-103748953D01*
X159476687Y-103784578D01*
X159484066Y-103793078D01*
X159490782Y-103801552D01*
X159604479Y-103915051D01*
X159615890Y-103924063D01*
X159752654Y-104008365D01*
X159765832Y-104014509D01*
X159918740Y-104065227D01*
X159932106Y-104068093D01*
X160025601Y-104077672D01*
X160032016Y-104078000D01*
X160050385Y-104078000D01*
X160065624Y-104073525D01*
X160066829Y-104072135D01*
X160068500Y-104064452D01*
X160068500Y-104059884D01*
X160576500Y-104059884D01*
X160580975Y-104075123D01*
X160582365Y-104076328D01*
X160590048Y-104077999D01*
X160612933Y-104077999D01*
X160619452Y-104077662D01*
X160714170Y-104067834D01*
X160727564Y-104064942D01*
X160880365Y-104013964D01*
X160893543Y-104007790D01*
X161030149Y-103923256D01*
X161041550Y-103914220D01*
X161155051Y-103800521D01*
X161164063Y-103789110D01*
X161248365Y-103652346D01*
X161254509Y-103639168D01*
X161305227Y-103486260D01*
X161308093Y-103472894D01*
X161317672Y-103379399D01*
X161318000Y-103372984D01*
X161318000Y-103142115D01*
X161313525Y-103126876D01*
X161312135Y-103125671D01*
X161304452Y-103124000D01*
X160594615Y-103124000D01*
X160579376Y-103128475D01*
X160578171Y-103129865D01*
X160576500Y-103137548D01*
X160576500Y-104059884D01*
X160068500Y-104059884D01*
X160068500Y-103013003D01*
X162416579Y-103013003D01*
X162417363Y-103022977D01*
X162419662Y-103035564D01*
X162460981Y-103177783D01*
X162467230Y-103192222D01*
X162539167Y-103313861D01*
X162556627Y-103382677D01*
X162539167Y-103442139D01*
X162467230Y-103563778D01*
X162460981Y-103578217D01*
X162419662Y-103720436D01*
X162417363Y-103733023D01*
X162416740Y-103740943D01*
X162419910Y-103756030D01*
X162431374Y-103759000D01*
X162920885Y-103759000D01*
X162936124Y-103754525D01*
X162937329Y-103753135D01*
X162939000Y-103745452D01*
X162939000Y-103015115D01*
X162934525Y-102999876D01*
X162933135Y-102998671D01*
X162925452Y-102997000D01*
X162433434Y-102997000D01*
X162418639Y-103001344D01*
X162416579Y-103013003D01*
X160068500Y-103013003D01*
X160068500Y-102742000D01*
X160088502Y-102673879D01*
X160142158Y-102627386D01*
X160194500Y-102616000D01*
X161299884Y-102616000D01*
X161315123Y-102611525D01*
X161316328Y-102610135D01*
X161317999Y-102602452D01*
X161317999Y-102367067D01*
X161317662Y-102360548D01*
X161307834Y-102265830D01*
X161304942Y-102252436D01*
X161253964Y-102099635D01*
X161247790Y-102086457D01*
X161163256Y-101949851D01*
X161154220Y-101938450D01*
X161040521Y-101824949D01*
X161029110Y-101815937D01*
X160910788Y-101743003D01*
X162416579Y-101743003D01*
X162417363Y-101752977D01*
X162419662Y-101765564D01*
X162460981Y-101907783D01*
X162467230Y-101922222D01*
X162539167Y-102043861D01*
X162556627Y-102112677D01*
X162539167Y-102172139D01*
X162467230Y-102293778D01*
X162460981Y-102308217D01*
X162419662Y-102450436D01*
X162417363Y-102463023D01*
X162416740Y-102470943D01*
X162419910Y-102486030D01*
X162431374Y-102489000D01*
X162920885Y-102489000D01*
X162936124Y-102484525D01*
X162937329Y-102483135D01*
X162939000Y-102475452D01*
X162939000Y-101745115D01*
X162934525Y-101729876D01*
X162933135Y-101728671D01*
X162925452Y-101727000D01*
X162433434Y-101727000D01*
X162418639Y-101731344D01*
X162416579Y-101743003D01*
X160910788Y-101743003D01*
X160892346Y-101731635D01*
X160879167Y-101725490D01*
X160859389Y-101718930D01*
X160801029Y-101678500D01*
X160773791Y-101612936D01*
X160786324Y-101543055D01*
X160834648Y-101491042D01*
X160859178Y-101479814D01*
X160876993Y-101473870D01*
X160876995Y-101473869D01*
X160883946Y-101471550D01*
X161034348Y-101378478D01*
X161159305Y-101253303D01*
X161170754Y-101234729D01*
X161248275Y-101108968D01*
X161248276Y-101108966D01*
X161252115Y-101102738D01*
X161307797Y-100934861D01*
X161308701Y-100926045D01*
X161318172Y-100833598D01*
X161318500Y-100830400D01*
X161318500Y-100473003D01*
X162416579Y-100473003D01*
X162417363Y-100482977D01*
X162419662Y-100495564D01*
X162460981Y-100637783D01*
X162467230Y-100652222D01*
X162539167Y-100773861D01*
X162556627Y-100842677D01*
X162539167Y-100902139D01*
X162467230Y-101023778D01*
X162460981Y-101038217D01*
X162419662Y-101180436D01*
X162417363Y-101193023D01*
X162416740Y-101200943D01*
X162419910Y-101216030D01*
X162431374Y-101219000D01*
X162920885Y-101219000D01*
X162936124Y-101214525D01*
X162937329Y-101213135D01*
X162939000Y-101205452D01*
X162939000Y-100475115D01*
X162934525Y-100459876D01*
X162933135Y-100458671D01*
X162925452Y-100457000D01*
X162433434Y-100457000D01*
X162418639Y-100461344D01*
X162416579Y-100473003D01*
X161318500Y-100473003D01*
X161318500Y-99829600D01*
X161318055Y-99825308D01*
X161308238Y-99730692D01*
X161308237Y-99730688D01*
X161307526Y-99723834D01*
X161283409Y-99651545D01*
X161256327Y-99570372D01*
X161251550Y-99556054D01*
X161158478Y-99405652D01*
X161120868Y-99368107D01*
X161069482Y-99316811D01*
X161035403Y-99254529D01*
X161032500Y-99227638D01*
X161032500Y-99215999D01*
X161035982Y-99203003D01*
X162416579Y-99203003D01*
X162417363Y-99212977D01*
X162419662Y-99225564D01*
X162460981Y-99367783D01*
X162467230Y-99382222D01*
X162539167Y-99503861D01*
X162556627Y-99572677D01*
X162539167Y-99632139D01*
X162467230Y-99753778D01*
X162460981Y-99768217D01*
X162419662Y-99910436D01*
X162417363Y-99923023D01*
X162416740Y-99930943D01*
X162419910Y-99946030D01*
X162431374Y-99949000D01*
X162920885Y-99949000D01*
X162936124Y-99944525D01*
X162937329Y-99943135D01*
X162939000Y-99935452D01*
X162939000Y-99205115D01*
X162934525Y-99189876D01*
X162933135Y-99188671D01*
X162925452Y-99187000D01*
X162433434Y-99187000D01*
X162418639Y-99191344D01*
X162416579Y-99203003D01*
X161035982Y-99203003D01*
X161049381Y-99152999D01*
X161061793Y-99131502D01*
X161108527Y-99050556D01*
X161167542Y-98868928D01*
X161178816Y-98761667D01*
X161186814Y-98685565D01*
X161187504Y-98679000D01*
X161185606Y-98660943D01*
X162416740Y-98660943D01*
X162419910Y-98676030D01*
X162431374Y-98679000D01*
X162920885Y-98679000D01*
X162936124Y-98674525D01*
X162937329Y-98673135D01*
X162939000Y-98665452D01*
X162939000Y-98131100D01*
X162935027Y-98117569D01*
X162927129Y-98116434D01*
X162808217Y-98150981D01*
X162793778Y-98157230D01*
X162667595Y-98231854D01*
X162655159Y-98241501D01*
X162551501Y-98345159D01*
X162541854Y-98357595D01*
X162467230Y-98483778D01*
X162460981Y-98498217D01*
X162419662Y-98640436D01*
X162417363Y-98653023D01*
X162416740Y-98660943D01*
X161185606Y-98660943D01*
X161182418Y-98630610D01*
X161168232Y-98495635D01*
X161168232Y-98495633D01*
X161167542Y-98489072D01*
X161108527Y-98307444D01*
X161097260Y-98287928D01*
X161053815Y-98212681D01*
X161013040Y-98142056D01*
X160979226Y-98104501D01*
X160889675Y-98005045D01*
X160889674Y-98005044D01*
X160885253Y-98000134D01*
X160730752Y-97887882D01*
X160724724Y-97885198D01*
X160724722Y-97885197D01*
X160562319Y-97812891D01*
X160562318Y-97812891D01*
X160556288Y-97810206D01*
X160462888Y-97790353D01*
X160375944Y-97771872D01*
X160375939Y-97771872D01*
X160369487Y-97770500D01*
X160178513Y-97770500D01*
X160172061Y-97771872D01*
X160172056Y-97771872D01*
X160085113Y-97790353D01*
X159991712Y-97810206D01*
X159985682Y-97812891D01*
X159985681Y-97812891D01*
X159823278Y-97885197D01*
X159823276Y-97885198D01*
X159817248Y-97887882D01*
X159662747Y-98000134D01*
X159658326Y-98005044D01*
X159658325Y-98005045D01*
X159568775Y-98104501D01*
X159534960Y-98142056D01*
X159494185Y-98212681D01*
X159450741Y-98287928D01*
X159439473Y-98307444D01*
X159380458Y-98489072D01*
X159379768Y-98495633D01*
X159379768Y-98495635D01*
X159365582Y-98630610D01*
X159360496Y-98679000D01*
X159361186Y-98685565D01*
X159369185Y-98761667D01*
X159380458Y-98868928D01*
X159439473Y-99050556D01*
X159486208Y-99131502D01*
X159498619Y-99152999D01*
X159515500Y-99215999D01*
X159515500Y-99274626D01*
X159495498Y-99342747D01*
X159478675Y-99363642D01*
X159474218Y-99368107D01*
X159411937Y-99402187D01*
X159341116Y-99397186D01*
X159296025Y-99368264D01*
X159213483Y-99285866D01*
X159208303Y-99280695D01*
X159198461Y-99274628D01*
X159063968Y-99191725D01*
X159063966Y-99191724D01*
X159057738Y-99187885D01*
X158977995Y-99161436D01*
X158896389Y-99134368D01*
X158896387Y-99134368D01*
X158889861Y-99132203D01*
X158883025Y-99131503D01*
X158883022Y-99131502D01*
X158839969Y-99127091D01*
X158785400Y-99121500D01*
X158159600Y-99121500D01*
X158156354Y-99121837D01*
X158156350Y-99121837D01*
X158060692Y-99131762D01*
X158060688Y-99131763D01*
X158053834Y-99132474D01*
X158047298Y-99134655D01*
X158047296Y-99134655D01*
X157992313Y-99152999D01*
X157886054Y-99188450D01*
X157735652Y-99281522D01*
X157610695Y-99406697D01*
X157606855Y-99412927D01*
X157606854Y-99412928D01*
X157603150Y-99418938D01*
X157517885Y-99557262D01*
X157462203Y-99725139D01*
X157461503Y-99731975D01*
X157461502Y-99731978D01*
X157458871Y-99757661D01*
X157451500Y-99829600D01*
X157451500Y-100830400D01*
X157451837Y-100833646D01*
X157451837Y-100833650D01*
X157461424Y-100926045D01*
X157462474Y-100936166D01*
X157518450Y-101103946D01*
X157611522Y-101254348D01*
X157616704Y-101259521D01*
X157677018Y-101319730D01*
X157711097Y-101382013D01*
X157714000Y-101408903D01*
X157714000Y-101787421D01*
X157693998Y-101855542D01*
X157677173Y-101876439D01*
X157638084Y-101915596D01*
X157609383Y-101944347D01*
X157517339Y-102093671D01*
X157515034Y-102100619D01*
X157515034Y-102100620D01*
X157464679Y-102252436D01*
X157462115Y-102260165D01*
X157451500Y-102363769D01*
X156400060Y-102363769D01*
X156400060Y-97454811D01*
X156420062Y-97386690D01*
X156436965Y-97365716D01*
X157382331Y-96420350D01*
X157445228Y-96386199D01*
X157501824Y-96374169D01*
X157501833Y-96374166D01*
X157508288Y-96372794D01*
X157514319Y-96370109D01*
X157676722Y-96297803D01*
X157676724Y-96297802D01*
X157682752Y-96295118D01*
X157837253Y-96182866D01*
X157847968Y-96170966D01*
X157960621Y-96045852D01*
X157960622Y-96045851D01*
X157965040Y-96040944D01*
X158060527Y-95875556D01*
X158119542Y-95693928D01*
X158124859Y-95643345D01*
X158138814Y-95510565D01*
X158139504Y-95504000D01*
X158137599Y-95485872D01*
X158120232Y-95320635D01*
X158120232Y-95320633D01*
X158119542Y-95314072D01*
X158060527Y-95132444D01*
X157965040Y-94967056D01*
X157837253Y-94825134D01*
X157682752Y-94712882D01*
X157676724Y-94710198D01*
X157676722Y-94710197D01*
X157514319Y-94637891D01*
X157514318Y-94637891D01*
X157508288Y-94635206D01*
X157414887Y-94615353D01*
X157327944Y-94596872D01*
X157327939Y-94596872D01*
X157321487Y-94595500D01*
X157130513Y-94595500D01*
X157124061Y-94596872D01*
X157124056Y-94596872D01*
X157037113Y-94615353D01*
X156943712Y-94635206D01*
X156937682Y-94637891D01*
X156937681Y-94637891D01*
X156775278Y-94710197D01*
X156775276Y-94710198D01*
X156769248Y-94712882D01*
X156614747Y-94825134D01*
X156486960Y-94967056D01*
X156391473Y-95132444D01*
X156359613Y-95230500D01*
X156336613Y-95301285D01*
X156305875Y-95351444D01*
X155152649Y-96504670D01*
X155138237Y-96517056D01*
X155126642Y-96525589D01*
X155126637Y-96525594D01*
X155120742Y-96529932D01*
X155116003Y-96535510D01*
X155116000Y-96535513D01*
X155086525Y-96570208D01*
X155079595Y-96577724D01*
X155073900Y-96583419D01*
X155071620Y-96586301D01*
X155056279Y-96605691D01*
X155053488Y-96609095D01*
X155010969Y-96659143D01*
X155006227Y-96664725D01*
X155002899Y-96671241D01*
X154999532Y-96676290D01*
X154996365Y-96681419D01*
X154991826Y-96687156D01*
X154960905Y-96753315D01*
X154959002Y-96757209D01*
X154925791Y-96822248D01*
X154924052Y-96829356D01*
X154921953Y-96834999D01*
X154920036Y-96840762D01*
X154916938Y-96847390D01*
X154915448Y-96854552D01*
X154915448Y-96854553D01*
X154902074Y-96918852D01*
X154901104Y-96923136D01*
X154883752Y-96994050D01*
X154883060Y-97005204D01*
X154883024Y-97005202D01*
X154882785Y-97009195D01*
X154882411Y-97013387D01*
X154880920Y-97020555D01*
X154881118Y-97027872D01*
X154883014Y-97097961D01*
X154883060Y-97101368D01*
X154883060Y-97499189D01*
X154863058Y-97567310D01*
X154809402Y-97613803D01*
X154739128Y-97623907D01*
X154674548Y-97594413D01*
X154667965Y-97588284D01*
X153320125Y-96240444D01*
X153289387Y-96190285D01*
X153286977Y-96182866D01*
X153234527Y-96021444D01*
X153139040Y-95856056D01*
X153059254Y-95767444D01*
X153015675Y-95719045D01*
X153015674Y-95719044D01*
X153011253Y-95714134D01*
X152856752Y-95601882D01*
X152850724Y-95599198D01*
X152850722Y-95599197D01*
X152688319Y-95526891D01*
X152688318Y-95526891D01*
X152682288Y-95524206D01*
X152585660Y-95503667D01*
X152501944Y-95485872D01*
X152501939Y-95485872D01*
X152495487Y-95484500D01*
X152304513Y-95484500D01*
X152298061Y-95485872D01*
X152298056Y-95485872D01*
X152214340Y-95503667D01*
X152117712Y-95524206D01*
X152111682Y-95526891D01*
X152111681Y-95526891D01*
X151949278Y-95599197D01*
X151949276Y-95599198D01*
X151943248Y-95601882D01*
X151788747Y-95714134D01*
X151784326Y-95719044D01*
X151784325Y-95719045D01*
X151740747Y-95767444D01*
X151660960Y-95856056D01*
X151565473Y-96021444D01*
X151506458Y-96203072D01*
X151505768Y-96209633D01*
X151505768Y-96209635D01*
X151496784Y-96295118D01*
X151486496Y-96393000D01*
X151487186Y-96399565D01*
X151501475Y-96535513D01*
X151506458Y-96582928D01*
X151565473Y-96764556D01*
X151660960Y-96929944D01*
X151665378Y-96934851D01*
X151665379Y-96934852D01*
X151728724Y-97005204D01*
X151788747Y-97071866D01*
X151943248Y-97184118D01*
X151949276Y-97186802D01*
X151949278Y-97186803D01*
X152111681Y-97259109D01*
X152117712Y-97261794D01*
X152124167Y-97263166D01*
X152124176Y-97263169D01*
X152180772Y-97275199D01*
X152243669Y-97309350D01*
X154146635Y-99212316D01*
X154180661Y-99274628D01*
X154183540Y-99301411D01*
X154183540Y-101625669D01*
X154163538Y-101693790D01*
X154109882Y-101740283D01*
X154039608Y-101750387D01*
X153975028Y-101720893D01*
X153968445Y-101714764D01*
X147903770Y-95650089D01*
X147891384Y-95635677D01*
X147882851Y-95624082D01*
X147882846Y-95624077D01*
X147878508Y-95618182D01*
X147872930Y-95613443D01*
X147872927Y-95613440D01*
X147838232Y-95583965D01*
X147830716Y-95577035D01*
X147825021Y-95571340D01*
X147818880Y-95566482D01*
X147802749Y-95553719D01*
X147799345Y-95550928D01*
X147749297Y-95508409D01*
X147749295Y-95508408D01*
X147743715Y-95503667D01*
X147737199Y-95500339D01*
X147732150Y-95496972D01*
X147727021Y-95493805D01*
X147721284Y-95489266D01*
X147655125Y-95458345D01*
X147651225Y-95456439D01*
X147650857Y-95456251D01*
X147586192Y-95423231D01*
X147579084Y-95421492D01*
X147573441Y-95419393D01*
X147567678Y-95417476D01*
X147561050Y-95414378D01*
X147489583Y-95399513D01*
X147485299Y-95398543D01*
X147414390Y-95381192D01*
X147408788Y-95380844D01*
X147408785Y-95380844D01*
X147403236Y-95380500D01*
X147403238Y-95380464D01*
X147399245Y-95380225D01*
X147395053Y-95379851D01*
X147387885Y-95378360D01*
X147321675Y-95380151D01*
X147310479Y-95380454D01*
X147307072Y-95380500D01*
X142782587Y-95380500D01*
X142708528Y-95356437D01*
X142702098Y-95351765D01*
X142702091Y-95351761D01*
X142696752Y-95347882D01*
X142690724Y-95345198D01*
X142690722Y-95345197D01*
X142528319Y-95272891D01*
X142528318Y-95272891D01*
X142522288Y-95270206D01*
X142428888Y-95250353D01*
X142341944Y-95231872D01*
X142341939Y-95231872D01*
X142335487Y-95230500D01*
X142144513Y-95230500D01*
X142138061Y-95231872D01*
X142138056Y-95231872D01*
X142051113Y-95250353D01*
X141957712Y-95270206D01*
X141951682Y-95272891D01*
X141951681Y-95272891D01*
X141789278Y-95345197D01*
X141789276Y-95345198D01*
X141783248Y-95347882D01*
X141777907Y-95351762D01*
X141777906Y-95351763D01*
X141771473Y-95356437D01*
X141628747Y-95460134D01*
X141624326Y-95465044D01*
X141624325Y-95465045D01*
X141520229Y-95580656D01*
X141500960Y-95602056D01*
X141405473Y-95767444D01*
X141346458Y-95949072D01*
X141326496Y-96139000D01*
X141327186Y-96145565D01*
X141343187Y-96297803D01*
X141346458Y-96328928D01*
X141405473Y-96510556D01*
X141500960Y-96675944D01*
X141505378Y-96680851D01*
X141505379Y-96680852D01*
X141601151Y-96787218D01*
X141628747Y-96817866D01*
X141652689Y-96835261D01*
X141777904Y-96926235D01*
X141783248Y-96930118D01*
X141789276Y-96932802D01*
X141789278Y-96932803D01*
X141914590Y-96988595D01*
X141957712Y-97007794D01*
X142051112Y-97027647D01*
X142138056Y-97046128D01*
X142138061Y-97046128D01*
X142144513Y-97047500D01*
X142335487Y-97047500D01*
X142341939Y-97046128D01*
X142341944Y-97046128D01*
X142428888Y-97027647D01*
X142522288Y-97007794D01*
X142565410Y-96988595D01*
X142690722Y-96932803D01*
X142690724Y-96932802D01*
X142696752Y-96930118D01*
X142702091Y-96926239D01*
X142702098Y-96926235D01*
X142708528Y-96921563D01*
X142782587Y-96897500D01*
X146953629Y-96897500D01*
X147021750Y-96917502D01*
X147042724Y-96934405D01*
X149083724Y-98975405D01*
X149117750Y-99037717D01*
X149112685Y-99108532D01*
X149070138Y-99165368D01*
X149003618Y-99190179D01*
X148994629Y-99190500D01*
X139767070Y-99190500D01*
X139748120Y-99189067D01*
X139733885Y-99186901D01*
X139733881Y-99186901D01*
X139726651Y-99185801D01*
X139719359Y-99186394D01*
X139719356Y-99186394D01*
X139673982Y-99190085D01*
X139663767Y-99190500D01*
X139655707Y-99190500D01*
X139652073Y-99190924D01*
X139652067Y-99190924D01*
X139640215Y-99192306D01*
X139627480Y-99193791D01*
X139623132Y-99194221D01*
X139601059Y-99196016D01*
X139557662Y-99199546D01*
X139557659Y-99199547D01*
X139550364Y-99200140D01*
X139543400Y-99202396D01*
X139537461Y-99203583D01*
X139531590Y-99204970D01*
X139524319Y-99205818D01*
X139517443Y-99208314D01*
X139517434Y-99208316D01*
X139455702Y-99230725D01*
X139451598Y-99232135D01*
X139382101Y-99254648D01*
X139375846Y-99258444D01*
X139370387Y-99260943D01*
X139364939Y-99263671D01*
X139358063Y-99266167D01*
X139297010Y-99306195D01*
X139293337Y-99308513D01*
X139230893Y-99346405D01*
X139222517Y-99353802D01*
X139222493Y-99353775D01*
X139219499Y-99356430D01*
X139216268Y-99359132D01*
X139210148Y-99363144D01*
X139205116Y-99368456D01*
X139156872Y-99419383D01*
X139154494Y-99421825D01*
X137892669Y-100683650D01*
X137829772Y-100717801D01*
X137773176Y-100729831D01*
X137773167Y-100729834D01*
X137766712Y-100731206D01*
X137760682Y-100733891D01*
X137760681Y-100733891D01*
X137598278Y-100806197D01*
X137598276Y-100806198D01*
X137592248Y-100808882D01*
X137437747Y-100921134D01*
X137309960Y-101063056D01*
X137290364Y-101096998D01*
X137219926Y-101219000D01*
X137214473Y-101228444D01*
X137155458Y-101410072D01*
X137154768Y-101416633D01*
X137154768Y-101416635D01*
X137148695Y-101474418D01*
X137135496Y-101600000D01*
X126588421Y-101600000D01*
X126590535Y-101593435D01*
X126701587Y-101248583D01*
X126703234Y-101243801D01*
X126852137Y-100838000D01*
X127040150Y-100325616D01*
X127041979Y-100320924D01*
X127075587Y-100239588D01*
X127415484Y-99416975D01*
X127417507Y-99412345D01*
X127439960Y-99363642D01*
X127755584Y-98679000D01*
X127826969Y-98524155D01*
X127829178Y-98519605D01*
X128273968Y-97648536D01*
X128276358Y-97644079D01*
X128755739Y-96791576D01*
X128758306Y-96787218D01*
X129161919Y-96132435D01*
X129271524Y-95954622D01*
X129274260Y-95950378D01*
X129328865Y-95869271D01*
X129694529Y-95326128D01*
X129820462Y-95139073D01*
X129823370Y-95134935D01*
X130187818Y-94637891D01*
X130401706Y-94346184D01*
X130404773Y-94342173D01*
X131014286Y-93577282D01*
X131017516Y-93573391D01*
X131574346Y-92929434D01*
X131657251Y-92833557D01*
X131660632Y-92829802D01*
X131724218Y-92761972D01*
X132329533Y-92116249D01*
X132333061Y-92112634D01*
X132742317Y-91709757D01*
X133030054Y-91426504D01*
X133033729Y-91423029D01*
X133070425Y-91389697D01*
X133757707Y-90765412D01*
X133761476Y-90762124D01*
X134138825Y-90446052D01*
X134511287Y-90134074D01*
X134515229Y-90130905D01*
X134916481Y-89821341D01*
X144307888Y-89821341D01*
X144307983Y-89824971D01*
X144307983Y-89824972D01*
X144310367Y-89916000D01*
X144316970Y-90168171D01*
X144365856Y-90511660D01*
X144453897Y-90847253D01*
X144579927Y-91170503D01*
X144581624Y-91173708D01*
X144715113Y-91425825D01*
X144742275Y-91477126D01*
X144744325Y-91480109D01*
X144744327Y-91480112D01*
X144936733Y-91760064D01*
X144936739Y-91760071D01*
X144938790Y-91763056D01*
X145166866Y-92024505D01*
X145169551Y-92026948D01*
X145379268Y-92217775D01*
X145423481Y-92258006D01*
X145705233Y-92460466D01*
X146008388Y-92629200D01*
X146328928Y-92761972D01*
X146332422Y-92762967D01*
X146332424Y-92762968D01*
X146659103Y-92856025D01*
X146659108Y-92856026D01*
X146662604Y-92857022D01*
X146859304Y-92889233D01*
X147001412Y-92912504D01*
X147001419Y-92912505D01*
X147004993Y-92913090D01*
X147178275Y-92921262D01*
X147347931Y-92929263D01*
X147347932Y-92929263D01*
X147351558Y-92929434D01*
X147360415Y-92928830D01*
X147694073Y-92906084D01*
X147694081Y-92906083D01*
X147697704Y-92905836D01*
X147701279Y-92905173D01*
X147701282Y-92905173D01*
X148035279Y-92843270D01*
X148035283Y-92843269D01*
X148038844Y-92842609D01*
X148370456Y-92740592D01*
X148688145Y-92601136D01*
X148932511Y-92458341D01*
X148984560Y-92427926D01*
X148984562Y-92427925D01*
X148987700Y-92426091D01*
X149157092Y-92298908D01*
X149262244Y-92219958D01*
X149262248Y-92219955D01*
X149265151Y-92217775D01*
X149516819Y-91978950D01*
X149739370Y-91712783D01*
X149796512Y-91625793D01*
X149880956Y-91497238D01*
X149929853Y-91422799D01*
X150058446Y-91167121D01*
X150084117Y-91116080D01*
X150084120Y-91116072D01*
X150085744Y-91112844D01*
X150086989Y-91109442D01*
X150203729Y-90790437D01*
X150203730Y-90790433D01*
X150204977Y-90787026D01*
X150205822Y-90783504D01*
X150205825Y-90783496D01*
X150285124Y-90453191D01*
X150285125Y-90453187D01*
X150285971Y-90449662D01*
X150304783Y-90294209D01*
X150327316Y-90108004D01*
X150327316Y-90107997D01*
X150327652Y-90105225D01*
X150333599Y-89916000D01*
X150333438Y-89913204D01*
X150313836Y-89573246D01*
X150313835Y-89573241D01*
X150313627Y-89569626D01*
X150253976Y-89227842D01*
X150155437Y-88895180D01*
X150019316Y-88576048D01*
X150012249Y-88563657D01*
X149849208Y-88277816D01*
X149847417Y-88274676D01*
X149642018Y-87995060D01*
X149405842Y-87740904D01*
X149142019Y-87515578D01*
X148854047Y-87322069D01*
X148545741Y-87162940D01*
X148221189Y-87040302D01*
X148217668Y-87039418D01*
X148217663Y-87039416D01*
X148056378Y-86998904D01*
X147884692Y-86955780D01*
X147862476Y-86952855D01*
X147544315Y-86910968D01*
X147544307Y-86910967D01*
X147540711Y-86910494D01*
X147396045Y-86908221D01*
X147197446Y-86905101D01*
X147197442Y-86905101D01*
X147193804Y-86905044D01*
X147190190Y-86905405D01*
X147190184Y-86905405D01*
X146946843Y-86929694D01*
X146848569Y-86939503D01*
X146509583Y-87013414D01*
X146506156Y-87014587D01*
X146506150Y-87014589D01*
X146427296Y-87041587D01*
X146181339Y-87125797D01*
X145868188Y-87275163D01*
X145574279Y-87459532D01*
X145571443Y-87461804D01*
X145571436Y-87461809D01*
X145327384Y-87657332D01*
X145303509Y-87676459D01*
X145059466Y-87923071D01*
X145057225Y-87925929D01*
X145000732Y-87997978D01*
X144845386Y-88196098D01*
X144843493Y-88199187D01*
X144843491Y-88199190D01*
X144797233Y-88274676D01*
X144664105Y-88491921D01*
X144662580Y-88495206D01*
X144662578Y-88495210D01*
X144623505Y-88579386D01*
X144518027Y-88806620D01*
X144409087Y-89136023D01*
X144338730Y-89475764D01*
X144307888Y-89821341D01*
X134916481Y-89821341D01*
X135289581Y-89533496D01*
X135293646Y-89530487D01*
X135888659Y-89108414D01*
X136091395Y-88964604D01*
X136095570Y-88961767D01*
X136915382Y-88428356D01*
X136919676Y-88425683D01*
X137760210Y-87925619D01*
X137764608Y-87923121D01*
X138624522Y-87457197D01*
X138629016Y-87454877D01*
X139285989Y-87132318D01*
X139506980Y-87023817D01*
X139511559Y-87021682D01*
X139530261Y-87013414D01*
X140406086Y-86626215D01*
X140410724Y-86624275D01*
X141320416Y-86265021D01*
X141325156Y-86263258D01*
X141560059Y-86181226D01*
X142248553Y-85940793D01*
X142253267Y-85939251D01*
X143188922Y-85654085D01*
X143193741Y-85652722D01*
X143401772Y-85598340D01*
X144140037Y-85405348D01*
X144144932Y-85404174D01*
X144478067Y-85331234D01*
X145100325Y-85194991D01*
X145105286Y-85194008D01*
X145839457Y-85063893D01*
X146068363Y-85023325D01*
X146073343Y-85022545D01*
X147042465Y-84890653D01*
X147047479Y-84890074D01*
X148021090Y-84797183D01*
X148026119Y-84796805D01*
X149002744Y-84743057D01*
X149007770Y-84742882D01*
X149484389Y-84735811D01*
X149985698Y-84728374D01*
X149990755Y-84728400D01*
G37*
%TD.AperFunction*%
%TD*%
M02*
