M48
; DRILL file {KiCad 6.0.1} date Sun 27 Feb 2022 01:50:02 PM
; FORMAT={-:-/ absolute / inch / decimal}
; #@! TF.CreationDate,2022-02-27T13:50:02-05:00
; #@! TF.GenerationSoftware,Kicad,Pcbnew,6.0.1
; #@! TF.FileFunction,Plated,1,2,PTH
FMAT,2
INCH
; #@! TA.AperFunction,Plated,PTH,ViaDrill
T1C0.0157
; #@! TA.AperFunction,Plated,PTH,ComponentDrill
T2C0.0315
; #@! TA.AperFunction,Plated,PTH,ComponentDrill
T3C0.0394
; #@! TA.AperFunction,Plated,PTH,ComponentDrill
T4C0.0984
%
G90
G05
T1
X5.03Y-4.3
X5.15Y-3.9
X5.19Y-4.7
X5.225Y-4.3
X5.435Y-4.0
X5.5Y-3.505
X5.5Y-5.1
X5.6Y-3.785
X5.705Y-4.7
X5.92Y-4.74
X5.975Y-5.205
X5.985Y-3.42
X6.0Y-3.795
X6.065Y-4.735
X6.19Y-3.76
X6.25Y-4.225
X6.25Y-4.275
X6.31Y-3.885
X6.445Y-4.375
X6.475Y-3.625
X6.5014Y-3.8965
X6.5014Y-3.9465
X6.5014Y-3.9965
X6.5014Y-4.0465
X6.5014Y-4.0965
X6.71Y-4.68
T2
X5.53Y-4.31
X5.53Y-4.46
X5.83Y-4.31
X5.83Y-4.46
T3
X5.95Y-4.1554
X5.95Y-4.2554
X5.95Y-4.3554
X5.95Y-4.4554
T4
X5.795Y-5.115
X5.8Y-3.54
T0
M30
