%TF.GenerationSoftware,KiCad,Pcbnew,6.0.1*%
%TF.CreationDate,2022-02-27T14:03:47-05:00*%
%TF.ProjectId,jetta-dash,6a657474-612d-4646-9173-682e6b696361,rev?*%
%TF.SameCoordinates,Original*%
%TF.FileFunction,Legend,Bot*%
%TF.FilePolarity,Positive*%
%FSLAX46Y46*%
G04 Gerber Fmt 4.6, Leading zero omitted, Abs format (unit mm)*
G04 Created by KiCad (PCBNEW 6.0.1) date 2022-02-27 14:03:47*
%MOMM*%
%LPD*%
G01*
G04 APERTURE LIST*
%ADD10C,0.125000*%
%ADD11C,0.150000*%
%ADD12C,0.120000*%
G04 APERTURE END LIST*
D10*
X152658000Y-105039047D02*
X152634190Y-104991428D01*
X152634190Y-104920000D01*
X152658000Y-104848571D01*
X152705619Y-104800952D01*
X152753238Y-104777142D01*
X152848476Y-104753333D01*
X152919904Y-104753333D01*
X153015142Y-104777142D01*
X153062761Y-104800952D01*
X153110380Y-104848571D01*
X153134190Y-104920000D01*
X153134190Y-104967619D01*
X153110380Y-105039047D01*
X153086571Y-105062857D01*
X152919904Y-105062857D01*
X152919904Y-104967619D01*
X153134190Y-105277142D02*
X152634190Y-105277142D01*
X153134190Y-105562857D01*
X152634190Y-105562857D01*
X153134190Y-105800952D02*
X152634190Y-105800952D01*
X152634190Y-105920000D01*
X152658000Y-105991428D01*
X152705619Y-106039047D01*
X152753238Y-106062857D01*
X152848476Y-106086666D01*
X152919904Y-106086666D01*
X153015142Y-106062857D01*
X153062761Y-106039047D01*
X153110380Y-105991428D01*
X153134190Y-105920000D01*
X153134190Y-105800952D01*
X153110380Y-109934761D02*
X153134190Y-110006190D01*
X153134190Y-110125238D01*
X153110380Y-110172857D01*
X153086571Y-110196666D01*
X153038952Y-110220476D01*
X152991333Y-110220476D01*
X152943714Y-110196666D01*
X152919904Y-110172857D01*
X152896095Y-110125238D01*
X152872285Y-110030000D01*
X152848476Y-109982380D01*
X152824666Y-109958571D01*
X152777047Y-109934761D01*
X152729428Y-109934761D01*
X152681809Y-109958571D01*
X152658000Y-109982380D01*
X152634190Y-110030000D01*
X152634190Y-110149047D01*
X152658000Y-110220476D01*
X153086571Y-110720476D02*
X153110380Y-110696666D01*
X153134190Y-110625238D01*
X153134190Y-110577619D01*
X153110380Y-110506190D01*
X153062761Y-110458571D01*
X153015142Y-110434761D01*
X152919904Y-110410952D01*
X152848476Y-110410952D01*
X152753238Y-110434761D01*
X152705619Y-110458571D01*
X152658000Y-110506190D01*
X152634190Y-110577619D01*
X152634190Y-110625238D01*
X152658000Y-110696666D01*
X152681809Y-110720476D01*
X153134190Y-111172857D02*
X153134190Y-110934761D01*
X152634190Y-110934761D01*
X153110380Y-107342857D02*
X153134190Y-107414285D01*
X153134190Y-107533333D01*
X153110380Y-107580952D01*
X153086571Y-107604761D01*
X153038952Y-107628571D01*
X152991333Y-107628571D01*
X152943714Y-107604761D01*
X152919904Y-107580952D01*
X152896095Y-107533333D01*
X152872285Y-107438095D01*
X152848476Y-107390476D01*
X152824666Y-107366666D01*
X152777047Y-107342857D01*
X152729428Y-107342857D01*
X152681809Y-107366666D01*
X152658000Y-107390476D01*
X152634190Y-107438095D01*
X152634190Y-107557142D01*
X152658000Y-107628571D01*
X153134190Y-107842857D02*
X152634190Y-107842857D01*
X152634190Y-107961904D01*
X152658000Y-108033333D01*
X152705619Y-108080952D01*
X152753238Y-108104761D01*
X152848476Y-108128571D01*
X152919904Y-108128571D01*
X153015142Y-108104761D01*
X153062761Y-108080952D01*
X153110380Y-108033333D01*
X153134190Y-107961904D01*
X153134190Y-107842857D01*
X152991333Y-108319047D02*
X152991333Y-108557142D01*
X153134190Y-108271428D02*
X152634190Y-108438095D01*
X153134190Y-108604761D01*
X152634190Y-112363333D02*
X153134190Y-112530000D01*
X152634190Y-112696666D01*
X153134190Y-112863333D02*
X152634190Y-112863333D01*
X152634190Y-112982380D01*
X152658000Y-113053809D01*
X152705619Y-113101428D01*
X152753238Y-113125238D01*
X152848476Y-113149047D01*
X152919904Y-113149047D01*
X153015142Y-113125238D01*
X153062761Y-113101428D01*
X153110380Y-113053809D01*
X153134190Y-112982380D01*
X153134190Y-112863333D01*
X153134190Y-113363333D02*
X152634190Y-113363333D01*
X152634190Y-113482380D01*
X152658000Y-113553809D01*
X152705619Y-113601428D01*
X152753238Y-113625238D01*
X152848476Y-113649047D01*
X152919904Y-113649047D01*
X153015142Y-113625238D01*
X153062761Y-113601428D01*
X153110380Y-113553809D01*
X153134190Y-113482380D01*
X153134190Y-113363333D01*
D11*
%TO.C,R30*%
X158503857Y-99004380D02*
X158837190Y-98528190D01*
X159075285Y-99004380D02*
X159075285Y-98004380D01*
X158694333Y-98004380D01*
X158599095Y-98052000D01*
X158551476Y-98099619D01*
X158503857Y-98194857D01*
X158503857Y-98337714D01*
X158551476Y-98432952D01*
X158599095Y-98480571D01*
X158694333Y-98528190D01*
X159075285Y-98528190D01*
X158170523Y-98004380D02*
X157551476Y-98004380D01*
X157884809Y-98385333D01*
X157741952Y-98385333D01*
X157646714Y-98432952D01*
X157599095Y-98480571D01*
X157551476Y-98575809D01*
X157551476Y-98813904D01*
X157599095Y-98909142D01*
X157646714Y-98956761D01*
X157741952Y-99004380D01*
X158027666Y-99004380D01*
X158122904Y-98956761D01*
X158170523Y-98909142D01*
X156932428Y-98004380D02*
X156837190Y-98004380D01*
X156741952Y-98052000D01*
X156694333Y-98099619D01*
X156646714Y-98194857D01*
X156599095Y-98385333D01*
X156599095Y-98623428D01*
X156646714Y-98813904D01*
X156694333Y-98909142D01*
X156741952Y-98956761D01*
X156837190Y-99004380D01*
X156932428Y-99004380D01*
X157027666Y-98956761D01*
X157075285Y-98909142D01*
X157122904Y-98813904D01*
X157170523Y-98623428D01*
X157170523Y-98385333D01*
X157122904Y-98194857D01*
X157075285Y-98099619D01*
X157027666Y-98052000D01*
X156932428Y-98004380D01*
%TO.C,D30*%
X159456285Y-105227380D02*
X159456285Y-104227380D01*
X159218190Y-104227380D01*
X159075333Y-104275000D01*
X158980095Y-104370238D01*
X158932476Y-104465476D01*
X158884857Y-104655952D01*
X158884857Y-104798809D01*
X158932476Y-104989285D01*
X158980095Y-105084523D01*
X159075333Y-105179761D01*
X159218190Y-105227380D01*
X159456285Y-105227380D01*
X158551523Y-104227380D02*
X157932476Y-104227380D01*
X158265809Y-104608333D01*
X158122952Y-104608333D01*
X158027714Y-104655952D01*
X157980095Y-104703571D01*
X157932476Y-104798809D01*
X157932476Y-105036904D01*
X157980095Y-105132142D01*
X158027714Y-105179761D01*
X158122952Y-105227380D01*
X158408666Y-105227380D01*
X158503904Y-105179761D01*
X158551523Y-105132142D01*
X157313428Y-104227380D02*
X157218190Y-104227380D01*
X157122952Y-104275000D01*
X157075333Y-104322619D01*
X157027714Y-104417857D01*
X156980095Y-104608333D01*
X156980095Y-104846428D01*
X157027714Y-105036904D01*
X157075333Y-105132142D01*
X157122952Y-105179761D01*
X157218190Y-105227380D01*
X157313428Y-105227380D01*
X157408666Y-105179761D01*
X157456285Y-105132142D01*
X157503904Y-105036904D01*
X157551523Y-104846428D01*
X157551523Y-104608333D01*
X157503904Y-104417857D01*
X157456285Y-104322619D01*
X157408666Y-104275000D01*
X157313428Y-104227380D01*
%TO.C,R4*%
X161964666Y-103195380D02*
X162298000Y-102719190D01*
X162536095Y-103195380D02*
X162536095Y-102195380D01*
X162155142Y-102195380D01*
X162059904Y-102243000D01*
X162012285Y-102290619D01*
X161964666Y-102385857D01*
X161964666Y-102528714D01*
X162012285Y-102623952D01*
X162059904Y-102671571D01*
X162155142Y-102719190D01*
X162536095Y-102719190D01*
X161107523Y-102528714D02*
X161107523Y-103195380D01*
X161345619Y-102147761D02*
X161583714Y-102862047D01*
X160964666Y-102862047D01*
%TO.C,R2*%
X161964666Y-100655380D02*
X162298000Y-100179190D01*
X162536095Y-100655380D02*
X162536095Y-99655380D01*
X162155142Y-99655380D01*
X162059904Y-99703000D01*
X162012285Y-99750619D01*
X161964666Y-99845857D01*
X161964666Y-99988714D01*
X162012285Y-100083952D01*
X162059904Y-100131571D01*
X162155142Y-100179190D01*
X162536095Y-100179190D01*
X161583714Y-99750619D02*
X161536095Y-99703000D01*
X161440857Y-99655380D01*
X161202761Y-99655380D01*
X161107523Y-99703000D01*
X161059904Y-99750619D01*
X161012285Y-99845857D01*
X161012285Y-99941095D01*
X161059904Y-100083952D01*
X161631333Y-100655380D01*
X161012285Y-100655380D01*
%TO.C,R3*%
X161964666Y-101925380D02*
X162298000Y-101449190D01*
X162536095Y-101925380D02*
X162536095Y-100925380D01*
X162155142Y-100925380D01*
X162059904Y-100973000D01*
X162012285Y-101020619D01*
X161964666Y-101115857D01*
X161964666Y-101258714D01*
X162012285Y-101353952D01*
X162059904Y-101401571D01*
X162155142Y-101449190D01*
X162536095Y-101449190D01*
X161631333Y-100925380D02*
X161012285Y-100925380D01*
X161345619Y-101306333D01*
X161202761Y-101306333D01*
X161107523Y-101353952D01*
X161059904Y-101401571D01*
X161012285Y-101496809D01*
X161012285Y-101734904D01*
X161059904Y-101830142D01*
X161107523Y-101877761D01*
X161202761Y-101925380D01*
X161488476Y-101925380D01*
X161583714Y-101877761D01*
X161631333Y-101830142D01*
%TO.C,R1*%
X161964666Y-99385380D02*
X162298000Y-98909190D01*
X162536095Y-99385380D02*
X162536095Y-98385380D01*
X162155142Y-98385380D01*
X162059904Y-98433000D01*
X162012285Y-98480619D01*
X161964666Y-98575857D01*
X161964666Y-98718714D01*
X162012285Y-98813952D01*
X162059904Y-98861571D01*
X162155142Y-98909190D01*
X162536095Y-98909190D01*
X161012285Y-99385380D02*
X161583714Y-99385380D01*
X161298000Y-99385380D02*
X161298000Y-98385380D01*
X161393238Y-98528238D01*
X161488476Y-98623476D01*
X161583714Y-98671095D01*
%TO.C,R5*%
X161964666Y-104465380D02*
X162298000Y-103989190D01*
X162536095Y-104465380D02*
X162536095Y-103465380D01*
X162155142Y-103465380D01*
X162059904Y-103513000D01*
X162012285Y-103560619D01*
X161964666Y-103655857D01*
X161964666Y-103798714D01*
X162012285Y-103893952D01*
X162059904Y-103941571D01*
X162155142Y-103989190D01*
X162536095Y-103989190D01*
X161059904Y-103465380D02*
X161536095Y-103465380D01*
X161583714Y-103941571D01*
X161536095Y-103893952D01*
X161440857Y-103846333D01*
X161202761Y-103846333D01*
X161107523Y-103893952D01*
X161059904Y-103941571D01*
X161012285Y-104036809D01*
X161012285Y-104274904D01*
X161059904Y-104370142D01*
X161107523Y-104417761D01*
X161202761Y-104465380D01*
X161440857Y-104465380D01*
X161536095Y-104417761D01*
X161583714Y-104370142D01*
%TO.C,U1*%
X166496904Y-111212380D02*
X166496904Y-112021904D01*
X166449285Y-112117142D01*
X166401666Y-112164761D01*
X166306428Y-112212380D01*
X166115952Y-112212380D01*
X166020714Y-112164761D01*
X165973095Y-112117142D01*
X165925476Y-112021904D01*
X165925476Y-111212380D01*
X164925476Y-112212380D02*
X165496904Y-112212380D01*
X165211190Y-112212380D02*
X165211190Y-111212380D01*
X165306428Y-111355238D01*
X165401666Y-111450476D01*
X165496904Y-111498095D01*
%TO.C,J1*%
X151463333Y-102669380D02*
X151463333Y-103383666D01*
X151510952Y-103526523D01*
X151606190Y-103621761D01*
X151749047Y-103669380D01*
X151844285Y-103669380D01*
X150463333Y-103669380D02*
X151034761Y-103669380D01*
X150749047Y-103669380D02*
X150749047Y-102669380D01*
X150844285Y-102812238D01*
X150939523Y-102907476D01*
X151034761Y-102955095D01*
%TO.C,R31*%
X144914857Y-109926380D02*
X145248190Y-109450190D01*
X145486285Y-109926380D02*
X145486285Y-108926380D01*
X145105333Y-108926380D01*
X145010095Y-108974000D01*
X144962476Y-109021619D01*
X144914857Y-109116857D01*
X144914857Y-109259714D01*
X144962476Y-109354952D01*
X145010095Y-109402571D01*
X145105333Y-109450190D01*
X145486285Y-109450190D01*
X144581523Y-108926380D02*
X143962476Y-108926380D01*
X144295809Y-109307333D01*
X144152952Y-109307333D01*
X144057714Y-109354952D01*
X144010095Y-109402571D01*
X143962476Y-109497809D01*
X143962476Y-109735904D01*
X144010095Y-109831142D01*
X144057714Y-109878761D01*
X144152952Y-109926380D01*
X144438666Y-109926380D01*
X144533904Y-109878761D01*
X144581523Y-109831142D01*
X143010095Y-109926380D02*
X143581523Y-109926380D01*
X143295809Y-109926380D02*
X143295809Y-108926380D01*
X143391047Y-109069238D01*
X143486285Y-109164476D01*
X143581523Y-109212095D01*
%TO.C,R32*%
X144914857Y-113736380D02*
X145248190Y-113260190D01*
X145486285Y-113736380D02*
X145486285Y-112736380D01*
X145105333Y-112736380D01*
X145010095Y-112784000D01*
X144962476Y-112831619D01*
X144914857Y-112926857D01*
X144914857Y-113069714D01*
X144962476Y-113164952D01*
X145010095Y-113212571D01*
X145105333Y-113260190D01*
X145486285Y-113260190D01*
X144581523Y-112736380D02*
X143962476Y-112736380D01*
X144295809Y-113117333D01*
X144152952Y-113117333D01*
X144057714Y-113164952D01*
X144010095Y-113212571D01*
X143962476Y-113307809D01*
X143962476Y-113545904D01*
X144010095Y-113641142D01*
X144057714Y-113688761D01*
X144152952Y-113736380D01*
X144438666Y-113736380D01*
X144533904Y-113688761D01*
X144581523Y-113641142D01*
X143581523Y-112831619D02*
X143533904Y-112784000D01*
X143438666Y-112736380D01*
X143200571Y-112736380D01*
X143105333Y-112784000D01*
X143057714Y-112831619D01*
X143010095Y-112926857D01*
X143010095Y-113022095D01*
X143057714Y-113164952D01*
X143629142Y-113736380D01*
X143010095Y-113736380D01*
%TO.C,R23*%
X159646857Y-122118380D02*
X159980190Y-121642190D01*
X160218285Y-122118380D02*
X160218285Y-121118380D01*
X159837333Y-121118380D01*
X159742095Y-121166000D01*
X159694476Y-121213619D01*
X159646857Y-121308857D01*
X159646857Y-121451714D01*
X159694476Y-121546952D01*
X159742095Y-121594571D01*
X159837333Y-121642190D01*
X160218285Y-121642190D01*
X159265904Y-121213619D02*
X159218285Y-121166000D01*
X159123047Y-121118380D01*
X158884952Y-121118380D01*
X158789714Y-121166000D01*
X158742095Y-121213619D01*
X158694476Y-121308857D01*
X158694476Y-121404095D01*
X158742095Y-121546952D01*
X159313523Y-122118380D01*
X158694476Y-122118380D01*
X158361142Y-121118380D02*
X157742095Y-121118380D01*
X158075428Y-121499333D01*
X157932571Y-121499333D01*
X157837333Y-121546952D01*
X157789714Y-121594571D01*
X157742095Y-121689809D01*
X157742095Y-121927904D01*
X157789714Y-122023142D01*
X157837333Y-122070761D01*
X157932571Y-122118380D01*
X158218285Y-122118380D01*
X158313523Y-122070761D01*
X158361142Y-122023142D01*
%TO.C,R24*%
X159646857Y-127578380D02*
X159980190Y-127102190D01*
X160218285Y-127578380D02*
X160218285Y-126578380D01*
X159837333Y-126578380D01*
X159742095Y-126626000D01*
X159694476Y-126673619D01*
X159646857Y-126768857D01*
X159646857Y-126911714D01*
X159694476Y-127006952D01*
X159742095Y-127054571D01*
X159837333Y-127102190D01*
X160218285Y-127102190D01*
X159265904Y-126673619D02*
X159218285Y-126626000D01*
X159123047Y-126578380D01*
X158884952Y-126578380D01*
X158789714Y-126626000D01*
X158742095Y-126673619D01*
X158694476Y-126768857D01*
X158694476Y-126864095D01*
X158742095Y-127006952D01*
X159313523Y-127578380D01*
X158694476Y-127578380D01*
X157837333Y-126911714D02*
X157837333Y-127578380D01*
X158075428Y-126530761D02*
X158313523Y-127245047D01*
X157694476Y-127245047D01*
%TO.C,C10*%
X145168857Y-106783142D02*
X145216476Y-106830761D01*
X145359333Y-106878380D01*
X145454571Y-106878380D01*
X145597428Y-106830761D01*
X145692666Y-106735523D01*
X145740285Y-106640285D01*
X145787904Y-106449809D01*
X145787904Y-106306952D01*
X145740285Y-106116476D01*
X145692666Y-106021238D01*
X145597428Y-105926000D01*
X145454571Y-105878380D01*
X145359333Y-105878380D01*
X145216476Y-105926000D01*
X145168857Y-105973619D01*
X144216476Y-106878380D02*
X144787904Y-106878380D01*
X144502190Y-106878380D02*
X144502190Y-105878380D01*
X144597428Y-106021238D01*
X144692666Y-106116476D01*
X144787904Y-106164095D01*
X143597428Y-105878380D02*
X143502190Y-105878380D01*
X143406952Y-105926000D01*
X143359333Y-105973619D01*
X143311714Y-106068857D01*
X143264095Y-106259333D01*
X143264095Y-106497428D01*
X143311714Y-106687904D01*
X143359333Y-106783142D01*
X143406952Y-106830761D01*
X143502190Y-106878380D01*
X143597428Y-106878380D01*
X143692666Y-106830761D01*
X143740285Y-106783142D01*
X143787904Y-106687904D01*
X143835523Y-106497428D01*
X143835523Y-106259333D01*
X143787904Y-106068857D01*
X143740285Y-105973619D01*
X143692666Y-105926000D01*
X143597428Y-105878380D01*
D12*
%TO.C,R30*%
X159157936Y-101065000D02*
X159612064Y-101065000D01*
X159157936Y-99595000D02*
X159612064Y-99595000D01*
%TO.C,D30*%
X157700000Y-101910000D02*
X160385000Y-101910000D01*
X157700000Y-103830000D02*
X157700000Y-101910000D01*
X160385000Y-103830000D02*
X157700000Y-103830000D01*
%TO.C,R4*%
X163549359Y-103123000D02*
X163856641Y-103123000D01*
X163549359Y-102363000D02*
X163856641Y-102363000D01*
%TO.C,R2*%
X163549359Y-99823000D02*
X163856641Y-99823000D01*
X163549359Y-100583000D02*
X163856641Y-100583000D01*
%TO.C,R3*%
X163549359Y-101093000D02*
X163856641Y-101093000D01*
X163549359Y-101853000D02*
X163856641Y-101853000D01*
%TO.C,R1*%
X163549359Y-98553000D02*
X163856641Y-98553000D01*
X163549359Y-99313000D02*
X163856641Y-99313000D01*
%TO.C,R5*%
X163549359Y-104393000D02*
X163856641Y-104393000D01*
X163549359Y-103633000D02*
X163856641Y-103633000D01*
%TO.C,U1*%
X165735000Y-105250000D02*
X161875000Y-105250000D01*
X165735000Y-118270000D02*
X161875000Y-118270000D01*
X169595000Y-105250000D02*
X169595000Y-105485000D01*
X169595000Y-118270000D02*
X169595000Y-118035000D01*
X161875000Y-105250000D02*
X161875000Y-105485000D01*
X165735000Y-105250000D02*
X169595000Y-105250000D01*
X165735000Y-118270000D02*
X169595000Y-118270000D01*
X169595000Y-105485000D02*
X171410000Y-105485000D01*
X161875000Y-118270000D02*
X161875000Y-118035000D01*
%TO.C,J1*%
X152460000Y-114497000D02*
X149800000Y-114497000D01*
X152460000Y-104217000D02*
X151130000Y-104217000D01*
X152460000Y-106817000D02*
X152460000Y-114497000D01*
X152460000Y-105547000D02*
X152460000Y-104217000D01*
X149800000Y-106817000D02*
X149800000Y-114497000D01*
X152460000Y-106817000D02*
X149800000Y-106817000D01*
%TO.C,R31*%
X147542000Y-110844000D02*
X147542000Y-110514000D01*
X141002000Y-108104000D02*
X147542000Y-108104000D01*
X141002000Y-110844000D02*
X147542000Y-110844000D01*
X141002000Y-110514000D02*
X141002000Y-110844000D01*
X141002000Y-108434000D02*
X141002000Y-108104000D01*
X147542000Y-108104000D02*
X147542000Y-108434000D01*
%TO.C,R32*%
X147542000Y-111914000D02*
X147542000Y-112244000D01*
X141002000Y-112244000D02*
X141002000Y-111914000D01*
X141002000Y-111914000D02*
X147542000Y-111914000D01*
X141002000Y-114654000D02*
X147542000Y-114654000D01*
X147542000Y-114654000D02*
X147542000Y-114324000D01*
X141002000Y-114324000D02*
X141002000Y-114654000D01*
%TO.C,R23*%
X158776936Y-122582000D02*
X159231064Y-122582000D01*
X158776936Y-124052000D02*
X159231064Y-124052000D01*
%TO.C,R24*%
X158776936Y-126211000D02*
X159231064Y-126211000D01*
X158776936Y-124741000D02*
X159231064Y-124741000D01*
%TO.C,C10*%
X141116000Y-106612563D02*
X141116000Y-105327000D01*
X141116000Y-101921437D02*
X141116000Y-103207000D01*
X142180437Y-107677000D02*
X147936000Y-107677000D01*
X142180437Y-100857000D02*
X147936000Y-100857000D01*
X147936000Y-107677000D02*
X147936000Y-105327000D01*
X147936000Y-100857000D02*
X147936000Y-103207000D01*
X141116000Y-106612563D02*
X142180437Y-107677000D01*
X141116000Y-101921437D02*
X142180437Y-100857000D01*
%TD*%
M02*
